<svg version="1.1" id="Layer_1" xmlns="http://www.w3.org/2000/svg" xmlns:xlink="http://www.w3.org/1999/xlink" x="0px" y="0px"
     width="283.6px" height="89px" viewBox="0 0 283.6 89" style="enable-background:new 0 0 283.6 89;" xml:space="preserve">
<style type="text/css">
    .st0 {
        fill: #720039;
    }

    .st1 {
        fill: none;
    }
</style>
<g>
<path class="st0" d="M83.4,47.4c5.3,1.7,10.4,2.5,16.1,2.5c4.4,0,10.3-0.8,10.3-5.9c0-9.9-27.6-10.6-27.6-28c0-11.4,11.1-16,22-16
		c6.2,0,11.7,0.5,18.4,1.8v10.1c-5-1.6-10.3-2.4-15.7-2.4c-3.3,0-8.2,1.1-8.2,4.8c0,9.4,28.6,10.2,28.6,28.1
		c0,5.7-3.4,17.1-25.4,17.1c-8,0-14.1-0.7-18.6-1.4V47.4z" />
<path class="st1" d="M83.4,47.4c5.3,1.7,10.4,2.5,16.1,2.5c4.4,0,10.3-0.8,10.3-5.9c0-9.9-27.6-10.6-27.6-28c0-11.4,11.1-16,22-16
		c6.2,0,11.7,0.5,18.4,1.8v10.1c-5-1.6-10.3-2.4-15.7-2.4c-3.3,0-8.2,1.1-8.2,4.8c0,9.4,28.6,10.2,28.6,28.1
		c0,5.7-3.4,17.1-25.4,17.1c-8,0-14.1-0.7-18.6-1.4V47.4z" />
<polygon class="st0" points="205.9,58.1 183.9,27.5 202.9,1.5 189.4,1.5 171.9,26.2 171.9,1.5 156.2,1.5 156.2,58.1 171.9,58.1
		171.9,33.6 188.4,58.1 	" />
<polygon class="st1" points="205.9,58.1 183.9,27.5 202.9,1.5 189.4,1.5 171.9,26.2 171.9,1.5 156.2,1.5 156.2,58.1 171.9,58.1
		171.9,33.6 188.4,58.1 	" />
<path class="st0" d="M223.6,29.8c0,20.4,10.3,29.7,30.1,29.7c19.7,0,30-9.3,30-29.7c0-20.5-10.3-29.8-30-29.8
		C233.9,0.1,223.6,9.4,223.6,29.8 M240,29.8c0-9.1,2-21,13.6-21c11.5,0,13.6,11.9,13.6,21c0,9.1-2,20.9-13.6,20.9
		C242,50.8,240,38.9,240,29.8" />
<path class="st1" d="M223.6,29.8c0,20.4,10.3,29.7,30.1,29.7c19.7,0,30-9.3,30-29.7c0-20.5-10.3-29.8-30-29.8
		C233.9,0.1,223.6,9.4,223.6,29.8 M240,29.8c0-9.1,2-21,13.6-21c11.5,0,13.6,11.9,13.6,21c0,9.1-2,20.9-13.6,20.9
		C242,50.8,240,38.9,240,29.8" />
<rect x="139.9" y="1.5" class="st0" width="2.3" height="56.7" />
<rect x="139.9" y="1.5" class="st1" width="2.3" height="56.7" />
<path class="st0" d="M0,58.1h14.7L20.4,44H43l5.6,14.1h15.5L42,1.5H23.1L0,58.1z M23.8,34.8l7.8-20.1l7.8,20.1H23.8z" />
<path class="st1" d="M0,58.1h14.7L20.4,44H43l5.6,14.1h15.5L42,1.5H23.1L0,58.1z M23.8,34.8l7.8-20.1l7.8,20.1H23.8z" />
<rect x="69" y="1.5" class="st0" width="2.3" height="56.7" />
<rect x="69" y="1.5" class="st1" width="2.3" height="56.7" />
<rect x="210.8" y="1.5" class="st0" width="2.3" height="56.7" />
<rect x="210.8" y="1.5" class="st1" width="2.3" height="56.7" />
<rect x="29.3" y="77.9" class="st0" width="9.3" height="2.1" />
<rect x="29.3" y="77.9" class="st1" width="9.3" height="2.1" />
<path class="st0" d="M47.8,84.4h-2.5l-1.6-9.3h2.5l0.6,4c0.1,0.7,0.2,1.5,0.2,2.2h0l3.3-6.6l2.3,0.7L47.8,84.4z" />
<path class="st1" d="M47.8,84.4h-2.5l-1.6-9.3h2.5l0.6,4c0.1,0.7,0.2,1.5,0.2,2.2h0l3.3-6.6l2.3,0.7L47.8,84.4z" />
<path class="st0" d="M55.7,73.9c-0.8,0-1.4-0.7-1.4-1.4c0-0.9,0.8-1.5,1.6-1.5c0.8,0,1.4,0.6,1.4,1.3
		C57.2,73.2,56.5,73.9,55.7,73.9 M54.7,84.4l-2.3,0l1.8-9.3h2.3L54.7,84.4z" />
<path class="st1" d="M55.7,73.9c-0.8,0-1.4-0.7-1.4-1.4c0-0.9,0.8-1.5,1.6-1.5c0.8,0,1.4,0.6,1.4,1.3
		C57.2,73.2,56.5,73.9,55.7,73.9z M54.7,84.4l-2.3,0l1.8-9.3h2.3L54.7,84.4z" />
<path class="st0" d="M68.9,72.7c-0.3-0.1-0.8-0.1-1.1-0.1c-1.1,0-1.6,0.5-1.9,1.9l-0.1,0.6l2.1,0l-0.4,1.8h-2.1L64,84.7
		c-0.6,3-2.1,4.3-4.4,4.3c-0.5,0-1.1-0.1-1.6-0.2l0.6-2c0.3,0.1,0.8,0.1,1.1,0.1c1,0,1.6-0.5,2-2.3l1.5-7.7h-1.6l0.4-1.8h1.6
		l0.1-0.7c0.4-2.5,1.7-3.8,4.3-3.8c0.5,0,1,0,1.5,0.1L68.9,72.7z" />
<path class="st1" d="M68.9,72.7c-0.3-0.1-0.8-0.1-1.1-0.1c-1.1,0-1.6,0.5-1.9,1.9l-0.1,0.6l2.1,0l-0.4,1.8h-2.1L64,84.7
		c-0.6,3-2.1,4.3-4.4,4.3c-0.5,0-1.1-0.1-1.6-0.2l0.6-2c0.3,0.1,0.8,0.1,1.1,0.1c1,0,1.6-0.5,2-2.3l1.5-7.7h-1.6l0.4-1.8h1.6
		l0.1-0.7c0.4-2.5,1.7-3.8,4.3-3.8c0.5,0,1,0,1.5,0.1L68.9,72.7z" />
<path class="st0" d="M72.8,76.9c-1.7,0-2.8,2.1-2.8,3.9c0,1,0.4,1.6,1.5,1.6c1.7,0,2.8-1.8,2.8-3.9C74.3,77.5,73.9,76.9,72.8,76.9
		 M71.2,84.5c-2.6,0-3.6-1.2-3.6-3.3c0-3.9,2.6-6.3,5.6-6.3c2.6,0,3.6,1.4,3.6,3.4C76.8,82.1,74.1,84.5,71.2,84.5" />
<path class="st1" d="M72.8,76.9c-1.7,0-2.8,2.1-2.8,3.9c0,1,0.4,1.6,1.5,1.6c1.7,0,2.8-1.8,2.8-3.9C74.3,77.5,73.9,76.9,72.8,76.9z
		 M71.2,84.5c-2.6,0-3.6-1.2-3.6-3.3c0-3.9,2.6-6.3,5.6-6.3c2.6,0,3.6,1.4,3.6,3.4C76.8,82.1,74.1,84.5,71.2,84.5z" />
<path class="st0" d="M83.9,77.2c-1.4-0.4-3,2-3.6,5.1l-0.4,2h-2.3l0.9-4.8c0.3-1.3,0.6-3.2,0.8-4.4l2.3,0c-0.1,0.7-0.4,1.5-0.8,2.8
		h0c1-2,2-3.2,3.6-3L83.9,77.2z" />
<path class="st1" d="M83.9,77.2c-1.4-0.4-3,2-3.6,5.1l-0.4,2h-2.3l0.9-4.8c0.3-1.3,0.6-3.2,0.8-4.4l2.3,0c-0.1,0.7-0.4,1.5-0.8,2.8
		h0c1-2,2-3.2,3.6-3L83.9,77.2z" />
<path class="st0" d="M90,76.9c-0.4-0.1-0.8-0.2-1.2-0.2c-1,0-1.4,0.4-1.4,1c0,1.1,2.4,1.7,2.4,3.7c0,1.5-1.3,3.2-4.2,3.2
		c-0.6,0-1.2-0.1-1.6-0.1l0.4-2c0.4,0.1,1,0.3,1.4,0.3c1,0,1.5-0.4,1.5-1c0-1.2-2.4-1.5-2.4-3.7c0-1.7,1.3-3,4-3
		c0.6,0,1.1,0,1.6,0.1L90,76.9z" />
<path class="st1" d="M90,76.9c-0.4-0.1-0.8-0.2-1.2-0.2c-1,0-1.4,0.4-1.4,1c0,1.1,2.4,1.7,2.4,3.7c0,1.5-1.3,3.2-4.2,3.2
		c-0.6,0-1.2-0.1-1.6-0.1l0.4-2c0.4,0.1,1,0.3,1.4,0.3c1,0,1.5-0.4,1.5-1c0-1.2-2.4-1.5-2.4-3.7c0-1.7,1.3-3,4-3
		c0.6,0,1.1,0,1.6,0.1L90,76.9z" />
<path class="st0" d="M93.9,87.3c-1.2,1.2-2.4,1.7-3.6,1.7c-0.5,0-1-0.1-1.4-0.1l0.4-2c0.4,0.1,0.7,0.2,1.1,0.2
		c0.6,0,1.2-0.3,1.7-0.8c0.6-0.6,0.9-1.2,0.9-2.4c0-2.6-0.6-5.7-1.4-8.7h2.6c0.5,2,0.9,4.7,0.9,6.6c0,0.2,0,0.5-0.1,0.8h0
		c1.2-2.3,2.3-4.7,3.5-7.8l2.3,0.6C98.2,81.5,96.1,85.1,93.9,87.3" />
<path class="st1" d="M93.9,87.3c-1.2,1.2-2.4,1.7-3.6,1.7c-0.5,0-1-0.1-1.4-0.1l0.4-2c0.4,0.1,0.7,0.2,1.1,0.2
		c0.6,0,1.2-0.3,1.7-0.8c0.6-0.6,0.9-1.2,0.9-2.4c0-2.6-0.6-5.7-1.4-8.7h2.6c0.5,2,0.9,4.7,0.9,6.6c0,0.2,0,0.5-0.1,0.8h0
		c1.2-2.3,2.3-4.7,3.5-7.8l2.3,0.6C98.2,81.5,96.1,85.1,93.9,87.3z" />
<path class="st0" d="M108.7,84.3h-2.3l1.1-5.8c0.2-1.1,0-1.6-0.6-1.6c-1.2,0-2.9,2.9-3.3,5.1l-0.4,2.3h-2.3l0.9-4.8
		c0.3-1.5,0.6-3.1,0.8-4.4l2.3,0c-0.1,0.6-0.3,1.4-0.8,2.9l0,0c0.8-1.7,2.1-3.1,3.9-3.1c1.8,0,2.3,1.3,2,3.1L108.7,84.3z" />
<path class="st1" d="M108.7,84.3h-2.3l1.1-5.8c0.2-1.1,0-1.6-0.6-1.6c-1.2,0-2.9,2.9-3.3,5.1l-0.4,2.3h-2.3l0.9-4.8
		c0.3-1.5,0.6-3.1,0.8-4.4l2.3,0c-0.1,0.6-0.3,1.4-0.8,2.9l0,0c0.8-1.7,2.1-3.1,3.9-3.1c1.8,0,2.3,1.3,2,3.1L108.7,84.3z" />
<path class="st0" d="M116.3,76.6c-1.2,0-2,1.1-2.3,2.3c2.1-0.1,3.3-0.5,3.3-1.5C117.3,76.9,116.9,76.6,116.3,76.6 M113.7,80.6
		c0,0.2-0.1,0.5-0.1,0.7c0,1.1,0.4,1.4,1.7,1.4c0.9,0,1.8-0.2,2.7-0.6v1.8c-1,0.4-2.2,0.6-3.5,0.6c-2.3,0-3.3-1.1-3.3-3.1
		c0-3.9,2.3-6.5,5.2-6.5c2.3,0,3,1.1,3,2.3C119.6,79.4,117.4,80.5,113.7,80.6" />
<path class="st1" d="M116.3,76.6c-1.2,0-2,1.1-2.3,2.3c2.1-0.1,3.3-0.5,3.3-1.5C117.3,76.9,116.9,76.6,116.3,76.6z M113.7,80.6
		c0,0.2-0.1,0.5-0.1,0.7c0,1.1,0.4,1.4,1.7,1.4c0.9,0,1.8-0.2,2.7-0.6v1.8c-1,0.4-2.2,0.6-3.5,0.6c-2.3,0-3.3-1.1-3.3-3.1
		c0-3.9,2.3-6.5,5.2-6.5c2.3,0,3,1.1,3,2.3C119.6,79.4,117.4,80.5,113.7,80.6z" />
<path class="st0" d="M126.6,77.2c-1.4-0.4-3,2-3.6,5.1l-0.4,2h-2.3l0.9-4.8c0.3-1.3,0.6-3.2,0.8-4.4h2.3c-0.1,0.7-0.4,1.5-0.8,2.8
		h0c1-2,2-3.2,3.6-3L126.6,77.2z" />
<path class="st1" d="M126.6,77.2c-1.4-0.4-3,2-3.6,5.1l-0.4,2h-2.3l0.9-4.8c0.3-1.3,0.6-3.2,0.8-4.4h2.3c-0.1,0.7-0.4,1.5-0.8,2.8
		h0c1-2,2-3.2,3.6-3L126.6,77.2z" />
<path class="st0" d="M140.8,84.3h-2.8l-2.4-6.3c-0.4-0.9-0.7-1.9-0.9-2.7c-0.1,1.2-0.3,2.3-0.6,3.6l-1,5.4h-2.3l2.4-12.6h2.8
		l2.3,5.9c0.4,1,0.7,2,1,3c0.1-1.2,0.4-2.6,0.6-3.7l0.9-5.2h2.3L140.8,84.3z" />
<path class="st1" d="M140.8,84.3h-2.8l-2.4-6.3c-0.4-0.9-0.7-1.9-0.9-2.7c-0.1,1.2-0.3,2.3-0.6,3.6l-1,5.4h-2.3l2.4-12.6h2.8
		l2.3,5.9c0.4,1,0.7,2,1,3c0.1-1.2,0.4-2.6,0.6-3.7l0.9-5.2h2.3L140.8,84.3z" />
<path class="st0" d="M148.7,76.9c-1.7,0-2.8,2.1-2.8,3.9c0,1,0.4,1.6,1.5,1.6c1.7,0,2.8-1.8,2.8-3.9
		C150.2,77.5,149.8,76.9,148.7,76.9 M147.1,84.5c-2.6,0-3.6-1.2-3.6-3.3c0-3.9,2.6-6.3,5.6-6.3c2.6,0,3.6,1.4,3.6,3.4
		C152.7,82.1,150,84.5,147.1,84.5" />
<path class="st1" d="M148.7,76.9c-1.7,0-2.8,2.1-2.8,3.9c0,1,0.4,1.6,1.5,1.6c1.7,0,2.8-1.8,2.8-3.9
		C150.2,77.5,149.8,76.9,148.7,76.9z M147.1,84.5c-2.6,0-3.6-1.2-3.6-3.3c0-3.9,2.6-6.3,5.6-6.3c2.6,0,3.6,1.4,3.6,3.4
		C152.7,82.1,150,84.5,147.1,84.5z" />
<path class="st0" d="M159.8,77.2c-1.4-0.4-3,2-3.6,5.1l-0.4,2h-2.3l0.9-4.8c0.3-1.3,0.6-3.2,0.8-4.4h2.3c-0.1,0.7-0.4,1.5-0.8,2.8
		h0c1-2,2-3.2,3.6-3L159.8,77.2z" />
<path class="st1" d="M159.8,77.2c-1.4-0.4-3,2-3.6,5.1l-0.4,2h-2.3l0.9-4.8c0.3-1.3,0.6-3.2,0.8-4.4h2.3c-0.1,0.7-0.4,1.5-0.8,2.8
		h0c1-2,2-3.2,3.6-3L159.8,77.2z" />
<path class="st0" d="M165.6,76.8c-2.1,0-3.1,2.5-3.1,4.4c0,0.9,0.2,1.3,0.7,1.3c1.3,0,3-3,3.4-5l0.1-0.6
		C166.3,76.8,166,76.8,165.6,76.8 M167.4,84.9c-0.5,2.6-2.1,4.1-5.7,4.1c-1,0-2-0.1-2.7-0.4l0.5-2.2c0.7,0.4,1.7,0.5,2.6,0.5
		c1.8,0,2.8-0.7,3.1-2.3c0.2-1.1,0.4-1.7,0.9-3.2l0,0c-0.7,1.3-2,3.1-3.9,3.1c-1.4,0-2.2-0.9-2.2-2.9c0-3.5,1.9-6.7,5.9-6.7
		c1.1,0,2.2,0.1,3.3,0.3L167.4,84.9z" />
<path class="st1" d="M165.6,76.8c-2.1,0-3.1,2.5-3.1,4.4c0,0.9,0.2,1.3,0.7,1.3c1.3,0,3-3,3.4-5l0.1-0.6
		C166.3,76.8,166,76.8,165.6,76.8z M167.4,84.9c-0.5,2.6-2.1,4.1-5.7,4.1c-1,0-2-0.1-2.7-0.4l0.5-2.2c0.7,0.4,1.7,0.5,2.6,0.5
		c1.8,0,2.8-0.7,3.1-2.3c0.2-1.1,0.4-1.7,0.9-3.2l0,0c-0.7,1.3-2,3.1-3.9,3.1c-1.4,0-2.2-0.9-2.2-2.9c0-3.5,1.9-6.7,5.9-6.7
		c1.1,0,2.2,0.1,3.3,0.3L167.4,84.9z" />
<path class="st0" d="M175.1,76.6c-1.2,0-2,1.1-2.3,2.3c2.1-0.1,3.3-0.5,3.3-1.5C176.1,76.9,175.7,76.6,175.1,76.6 M172.5,80.6
		c0,0.2-0.1,0.5-0.1,0.7c0,1.1,0.4,1.4,1.7,1.4c0.9,0,1.8-0.2,2.7-0.6v1.8c-1,0.4-2.2,0.6-3.5,0.6c-2.3,0-3.3-1.1-3.3-3.1
		c0-3.9,2.3-6.5,5.2-6.5c2.3,0,3,1.1,3,2.3C178.4,79.4,176.2,80.4,172.5,80.6" />
<path class="st1" d="M175.1,76.6c-1.2,0-2,1.1-2.3,2.3c2.1-0.1,3.3-0.5,3.3-1.5C176.1,76.9,175.7,76.6,175.1,76.6z M172.5,80.6
		c0,0.2-0.1,0.5-0.1,0.7c0,1.1,0.4,1.4,1.7,1.4c0.9,0,1.8-0.2,2.7-0.6v1.8c-1,0.4-2.2,0.6-3.5,0.6c-2.3,0-3.3-1.1-3.3-3.1
		c0-3.9,2.3-6.5,5.2-6.5c2.3,0,3,1.1,3,2.3C178.4,79.4,176.2,80.4,172.5,80.6z" />
<path class="st0" d="M196.4,84.3h-2.3l1.1-5.8c0.2-1.1,0-1.6-0.5-1.6c-1.2,0-2.9,2.9-3.3,5.1l-0.4,2.4h-2.3l1.1-5.8
		c0.2-1.1,0-1.6-0.5-1.6c-1.2,0-2.9,2.9-3.3,5.1l-0.4,2.3h-2.3l0.9-4.8c0.2-1.1,0.6-3.3,0.8-4.4h2.3c-0.1,0.6-0.4,1.5-0.8,2.9l0,0
		c0.8-1.7,2.1-3.1,3.8-3.1c1.1,0,1.9,0.6,1.9,1.8c0,0.4-0.1,0.7-0.3,1.3h0c0.9-1.7,2.1-3.1,3.9-3.1c1.8,0,2.3,1.3,2,3.1L196.4,84.3z
		" />
<path class="st1" d="M196.4,84.3h-2.3l1.1-5.8c0.2-1.1,0-1.6-0.5-1.6c-1.2,0-2.9,2.9-3.3,5.1l-0.4,2.4h-2.3l1.1-5.8
		c0.2-1.1,0-1.6-0.5-1.6c-1.2,0-2.9,2.9-3.3,5.1l-0.4,2.3h-2.3l0.9-4.8c0.2-1.1,0.6-3.3,0.8-4.4h2.3c-0.1,0.6-0.4,1.5-0.8,2.9l0,0
		c0.8-1.7,2.1-3.1,3.8-3.1c1.1,0,1.9,0.6,1.9,1.8c0,0.4-0.1,0.7-0.3,1.3h0c0.9-1.7,2.1-3.1,3.9-3.1c1.8,0,2.3,1.3,2,3.1L196.4,84.3z
		" />
<path class="st0" d="M204.1,76.6c-1.2,0-2,1.1-2.3,2.3c2.1-0.1,3.3-0.5,3.3-1.5C205,76.9,204.7,76.6,204.1,76.6 M201.5,80.6
		c0,0.2-0.1,0.5-0.1,0.7c0,1.1,0.4,1.4,1.7,1.4c0.9,0,1.8-0.2,2.7-0.6v1.8c-1,0.4-2.2,0.6-3.5,0.6c-2.3,0-3.3-1.1-3.3-3.1
		c0-3.9,2.3-6.5,5.2-6.5c2.3,0,3,1.1,3,2.3C207.3,79.4,205.1,80.4,201.5,80.6" />
<path class="st1" d="M204.1,76.6c-1.2,0-2,1.1-2.3,2.3c2.1-0.1,3.3-0.5,3.3-1.5C205,76.9,204.7,76.6,204.1,76.6z M201.5,80.6
		c0,0.2-0.1,0.5-0.1,0.7c0,1.1,0.4,1.4,1.7,1.4c0.9,0,1.8-0.2,2.7-0.6v1.8c-1,0.4-2.2,0.6-3.5,0.6c-2.3,0-3.3-1.1-3.3-3.1
		c0-3.9,2.3-6.5,5.2-6.5c2.3,0,3,1.1,3,2.3C207.3,79.4,205.1,80.4,201.5,80.6z" />
<path class="st0" d="M213.6,76.8c-2.1,0-3.1,2.5-3.1,4.4c0,0.9,0.2,1.3,0.7,1.3c1.3,0,3-3,3.4-5l0.1-0.6
		C214.4,76.8,214,76.8,213.6,76.8 M216.2,81c-0.2,1-0.4,2.5-0.6,3.3h-2.3c0.1-0.7,0.4-1.7,0.9-2.9h0c-0.7,1.4-2,3.2-3.9,3.2
		c-1.4,0-2.2-0.9-2.2-2.9c0-3.5,1.9-6.7,5.9-6.7c0.3,0,0.6,0,1,0.1l0.8-4.2h2.3L216.2,81z" />
<path class="st1" d="M213.6,76.8c-2.1,0-3.1,2.5-3.1,4.4c0,0.9,0.2,1.3,0.7,1.3c1.3,0,3-3,3.4-5l0.1-0.6
		C214.4,76.8,214,76.8,213.6,76.8z M216.2,81c-0.2,1-0.4,2.5-0.6,3.3h-2.3c0.1-0.7,0.4-1.7,0.9-2.9h0c-0.7,1.4-2,3.2-3.9,3.2
		c-1.4,0-2.2-0.9-2.2-2.9c0-3.5,1.9-6.7,5.9-6.7c0.3,0,0.6,0,1,0.1l0.8-4.2h2.3L216.2,81z" />
<path class="st0" d="M235.5,84.3l-2.3,0l1.1-5.8c0.2-1.1,0-1.6-0.5-1.6c-1.2,0-2.9,2.9-3.3,5.1l-0.4,2.4h-2.3l1.1-5.8
		c0.2-1.1,0-1.6-0.5-1.6c-1.2,0-2.9,2.9-3.3,5.1l-0.4,2.3l-2.3,0l0.9-4.8c0.2-1.1,0.6-3.3,0.8-4.4l2.3,0c-0.1,0.6-0.4,1.5-0.8,2.9
		l0,0c0.8-1.7,2.1-3.1,3.8-3.1c1.1,0,1.9,0.6,1.9,1.8c0,0.4-0.1,0.7-0.3,1.3h0c0.9-1.7,2.1-3.1,3.9-3.1c1.8,0,2.3,1.3,2,3.1
		L235.5,84.3z" />
<path class="st1" d="M235.5,84.3l-2.3,0l1.1-5.8c0.2-1.1,0-1.6-0.5-1.6c-1.2,0-2.9,2.9-3.3,5.1l-0.4,2.4h-2.3l1.1-5.8
		c0.2-1.1,0-1.6-0.5-1.6c-1.2,0-2.9,2.9-3.3,5.1l-0.4,2.3l-2.3,0l0.9-4.8c0.2-1.1,0.6-3.3,0.8-4.4l2.3,0c-0.1,0.6-0.4,1.5-0.8,2.9
		l0,0c0.8-1.7,2.1-3.1,3.8-3.1c1.1,0,1.9,0.6,1.9,1.8c0,0.4-0.1,0.7-0.3,1.3h0c0.9-1.7,2.1-3.1,3.9-3.1c1.8,0,2.3,1.3,2,3.1
		L235.5,84.3z" />
<path class="st0" d="M243.6,76.8c-2.1,0-3.1,2.5-3.1,4.4c0,0.9,0.2,1.3,0.7,1.3c1.3,0,3-3,3.4-5l0.1-0.6
		C244.4,76.8,244,76.8,243.6,76.8 M245.6,84.3l-2.3,0c0.2-0.7,0.4-1.7,0.9-2.9h0c-0.7,1.4-2,3.2-3.9,3.2c-1.4,0-2.2-0.9-2.2-2.9
		c0-3.5,1.9-6.7,5.9-6.7c1.1,0,2.2,0.1,3.3,0.3C246.5,79.5,246,81.9,245.6,84.3" />
<path class="st1" d="M243.6,76.8c-2.1,0-3.1,2.5-3.1,4.4c0,0.9,0.2,1.3,0.7,1.3c1.3,0,3-3,3.4-5l0.1-0.6
		C244.4,76.8,244,76.8,243.6,76.8z M245.6,84.3l-2.3,0c0.2-0.7,0.4-1.7,0.9-2.9h0c-0.7,1.4-2,3.2-3.9,3.2c-1.4,0-2.2-0.9-2.2-2.9
		c0-3.5,1.9-6.7,5.9-6.7c1.1,0,2.2,0.1,3.3,0.3C246.5,79.5,246,81.9,245.6,84.3z" />
<path class="st0" d="M254.2,76.9l-2.2,0l-0.8,4.2c-0.2,1.1-0.1,1.4,0.7,1.4c0.5,0,0.8-0.1,1.2-0.1l-0.2,1.9
		c-0.6,0.1-1.3,0.2-1.9,0.2c-2,0-2.6-1-2.1-3.2l0.8-4.4h-1.6l0.4-1.8h1.6l0.5-2.9l2.4-0.5l-0.6,3.3l2.2,0L254.2,76.9z" />
<path class="st1" d="M254.2,76.9l-2.2,0l-0.8,4.2c-0.2,1.1-0.1,1.4,0.7,1.4c0.5,0,0.8-0.1,1.2-0.1l-0.2,1.9
		c-0.6,0.1-1.3,0.2-1.9,0.2c-2,0-2.6-1-2.1-3.2l0.8-4.4h-1.6l0.4-1.8h1.6l0.5-2.9l2.4-0.5l-0.6,3.3l2.2,0L254.2,76.9z" />
</g>
</svg>