<svg xmlns="http://www.w3.org/2000/svg" width="511" height="285" viewBox="0 0 511 285"><title>Jacobs sort skrift_kompromissløs matglede</title><path fill="#FFF" d="M346.688 133.435c-6.194 8.665-11.756 11.53-16.524 9.997-4.758-1.513-8.03-14.094-4.166-26.69 3.868-12.597 8.113-20.485 14.25-24.8 0 0-.846 17.247 13.842 18.96 0 0-1.227 13.88-7.403 22.534zm-142.917 7.678c-.64 3.886-6.426 24.634-8.85 29.122-2.42 4.484-7.787 13.955-14.567 13.867-6.787-.097-6.933-16.432-6.636-19.564.304-3.135 2.253-17.423 9.06-25.45 6.772-8.04 13.905-10.33 16.42-9.63 2.53.73 5.782 4.31 4.574 11.655zM88.03 206.468c-13.968 17.832-23.308 24.75-38.58 24.175-15.27-.578-16.607-19.636-14.808-27.42 1.797-7.785 6.212-20.406 23.717-33.494 17.527-13.093 28.904-18.68 56.317-24.12 0 0-12.682 43.012-26.647 60.858zm330.443-168.36c9.21-15.826 13.7-17.493 14.944-17.278 1.25.213 1.664 4.25-.43 9.48-2.072 5.218-15.76 33.196-29.69 44.756 0 0 5.966-21.136 15.176-36.96v.002zm69.656 19.21c.13-5.68.723-10.937 2.11-14.356l-21.815 5.57s-2.127 8.018-8.106 13.47c-6.004 5.45-12.72 11.392-25.682 16.904 0 0-.652-13.977-11.43-9.92s-5.474 14.325-5.34 14.77c.133.436 2.302 5.208 8.328 4.533 0 0-1.604 13.203-4.588 20.173-2.98 6.944-7.95 16.136-16.476 16.29-8.537.134-6.938-19.3-6.813-21.21.108-1.895 1.402-12.76 2.738-17.177 0 0 24.81-28.097 30.14-38.97 5.327-10.868 12.804-29.644 5.352-36.352-7.448-6.688-35.025 24.012-43.84 40.756-8.822 16.733-12.844 24.968-16.877 41.226 0 0-8.114 5.568-10.297 6.584 0 0-.936-14.54-7.374-19.39-6.47-4.865-12.816-3.838-17.087 1.853 0 0-24.817 1.567-35.6 25.926-7.954 18.034-5.47 32.35-5.47 32.35s-13.518 19.33-25.916 18.25c-12.405-1.09-8.84-23.42-8.272-27.003.605-3.603 4.09-16.72 11.03-23.77 4.98-5.058 6.67-.82 6.67-.82s-4.604 7.605-2.484 11.49c2.12 3.878 6.782 4.848 9.683 2.576 2.91-2.284 8.894-9.847 8.543-16.065-.35-6.2-3.025-9.736-12.3-8.872-9.262.857-21.788 3.78-32.977 14.425-11.204 10.65-16.672 33.094-14.782 46.556 0 0-9.69 11.334-13.26 11.754-3.572.435-4.374-5.65-3.546-9.146.822-3.488 13.42-48.58 13.42-48.58l-26.443 6.947-2.145 5.67s-19.028-10.94-44.543 12.76c0 0-7.454-1.252-15.14.187 0 0 7.817-30.6 7.394-44.14 0 0-30.347-6.635-53.643-5.437-23.282 1.2-49.43 3.46-69.19 19.362-19.76 15.91-22.207 52.53 19.504 39.493 0 0-10.977-8.723-4.2-18.765 6.75-10.02 20.407-22.41 76.736-27.138 0 0 .66 1.747.507 2.878-.172 1.11-.332 10.346-8.575 37.304 0 0-45.348 8.102-70.487 24.315-25.126 16.22-36.004 32.733-35.573 50.296.43 17.543 19.826 26.686 36.532 24.527 16.73-2.18 43.592-13.482 57.818-26.3 14.205-12.81 28.186-25.62 42.136-71.11 0 0 4.153-2.018 11.746-.564 0 0-13.335 20.114-9.39 38.125 3.918 18.035 14.07 26.61 32.078 17.674 11.377-5.656 17.23-19.232 17.23-19.232s.668-.037 1.07 1.056c.398 1.09 4.407 10.43 10.564 10.213 6.154-.256 9.586-1.334 33.505-23.033 0 0 .81.394 1.443 1.468.622 1.067 6.025 9.35 14.627 8.636 8.605-.718 20.012-1.576 43.724-26.938 0 0 .828.617 1.323 1.483.486.857 5.927 9.564 18.27 9.42 12.354-.136 25.647-11.448 31.38-21.017 5.766-9.54 10.255-23.268 10.298-32.494 0 0 7.222-3.638 9.927-5.238 0 0-5.754 41.585 19.793 40.27 25.52-1.34 38.96-31.787 40.056-56.21 0 0 16.847-5.966 30.508-18.535l.46.21s.8 12.19 1.153 14.385c.35 2.21 1.85 10.926 1.876 13.587.052 2.666-.782 18.314-11.55 20.233-8.224 1.448-11.03-8.61-9.953-9.34 1.08-.73 3.67.24 6.332-1.504 1.687-1.076 7.682-5.197 6.522-11.564-1.14-6.4-9.05-5.17-11.772-3.897-2.75 1.26-9.824 9.11-8.542 17.943 1.292 8.82 9.787 18.358 19.79 16.69 10.02-1.686 22.39-5.39 27.644-13.58 5.276-8.206 6.23-17.268 4.71-28.073-1.493-10.82-3.324-19.18-3.188-24.863l-.005.01z"/><path fill="none" stroke="#FFF" stroke-width="20" stroke-linecap="round" stroke-linejoin="round" d="M346.688 133.435c-6.194 8.665-11.756 11.53-16.524 9.997-4.758-1.513-8.03-14.094-4.166-26.69 3.868-12.597 8.113-20.485 14.25-24.8 0 0-.846 17.247 13.842 18.96 0 0-1.227 13.88-7.403 22.534zm-142.917 7.678c-.64 3.886-6.426 24.634-8.85 29.122-2.42 4.484-7.787 13.955-14.567 13.867-6.787-.097-6.933-16.432-6.636-19.564.304-3.135 2.253-17.423 9.06-25.45 6.772-8.04 13.905-10.33 16.42-9.63 2.53.73 5.782 4.31 4.574 11.655zM88.03 206.468c-13.968 17.832-23.308 24.75-38.58 24.175-15.27-.578-16.607-19.636-14.808-27.42 1.797-7.785 6.212-20.406 23.717-33.494 17.527-13.093 28.904-18.68 56.317-24.12 0 0-12.682 43.012-26.647 60.858zm330.443-168.36c9.21-15.826 13.7-17.493 14.944-17.278 1.25.213 1.664 4.25-.43 9.48-2.072 5.218-15.76 33.196-29.69 44.756 0 0 5.966-21.136 15.176-36.96v.002zm69.656 19.21c.13-5.68.723-10.937 2.11-14.356l-21.815 5.57s-2.127 8.018-8.106 13.47c-6.004 5.45-12.72 11.392-25.682 16.904 0 0-.652-13.977-11.43-9.92s-5.474 14.325-5.34 14.77c.133.436 2.302 5.208 8.328 4.533 0 0-1.604 13.203-4.588 20.173-2.98 6.944-7.95 16.136-16.476 16.29-8.537.134-6.938-19.3-6.813-21.21.108-1.895 1.402-12.76 2.738-17.177 0 0 24.81-28.097 30.14-38.97 5.327-10.868 12.804-29.644 5.352-36.352-7.448-6.688-35.025 24.012-43.84 40.756-8.822 16.733-12.844 24.968-16.877 41.226 0 0-8.114 5.568-10.297 6.584 0 0-.936-14.54-7.374-19.39-6.47-4.865-12.816-3.838-17.087 1.853 0 0-24.817 1.567-35.6 25.926-7.954 18.034-5.47 32.35-5.47 32.35s-13.518 19.33-25.916 18.25c-12.405-1.09-8.84-23.42-8.272-27.003.605-3.603 4.09-16.72 11.03-23.77 4.98-5.058 6.67-.82 6.67-.82s-4.604 7.605-2.484 11.49c2.12 3.878 6.782 4.848 9.683 2.576 2.91-2.284 8.894-9.847 8.543-16.065-.35-6.2-3.025-9.736-12.3-8.872-9.262.857-21.788 3.78-32.977 14.425-11.204 10.65-16.672 33.094-14.782 46.556 0 0-9.69 11.334-13.26 11.754-3.572.435-4.374-5.65-3.546-9.146.822-3.488 13.42-48.58 13.42-48.58l-26.443 6.947-2.145 5.67s-19.028-10.94-44.543 12.76c0 0-7.454-1.252-15.14.187 0 0 7.817-30.6 7.394-44.14 0 0-30.347-6.635-53.643-5.437-23.282 1.2-49.43 3.46-69.19 19.362-19.76 15.91-22.207 52.53 19.504 39.493 0 0-10.977-8.723-4.2-18.765 6.75-10.02 20.407-22.41 76.736-27.138 0 0 .66 1.747.507 2.878-.172 1.11-.332 10.346-8.575 37.304 0 0-45.348 8.102-70.487 24.315-25.126 16.22-36.004 32.733-35.573 50.296.43 17.543 19.826 26.686 36.532 24.527 16.73-2.18 43.592-13.482 57.818-26.3 14.205-12.81 28.186-25.62 42.136-71.11 0 0 4.153-2.018 11.746-.564 0 0-13.335 20.114-9.39 38.125 3.918 18.035 14.07 26.61 32.078 17.674 11.377-5.656 17.23-19.232 17.23-19.232s.668-.037 1.07 1.056c.398 1.09 4.407 10.43 10.564 10.213 6.154-.256 9.586-1.334 33.505-23.033 0 0 .81.394 1.443 1.468.622 1.067 6.025 9.35 14.627 8.636 8.605-.718 20.012-1.576 43.724-26.938 0 0 .828.617 1.323 1.483.486.857 5.927 9.564 18.27 9.42 12.354-.136 25.647-11.448 31.38-21.017 5.766-9.54 10.255-23.268 10.298-32.494 0 0 7.222-3.638 9.927-5.238 0 0-5.754 41.585 19.793 40.27 25.52-1.34 38.96-31.787 40.056-56.21 0 0 16.847-5.966 30.508-18.535l.46.21s.8 12.19 1.153 14.385c.35 2.21 1.85 10.926 1.876 13.587.052 2.666-.782 18.314-11.55 20.233-8.224 1.448-11.03-8.61-9.953-9.34 1.08-.73 3.67.24 6.332-1.504 1.687-1.076 7.682-5.197 6.522-11.564-1.14-6.4-9.05-5.17-11.772-3.897-2.75 1.26-9.824 9.11-8.542 17.943 1.292 8.82 9.787 18.358 19.79 16.69 10.02-1.686 22.39-5.39 27.644-13.58 5.276-8.206 6.23-17.268 4.71-28.073-1.493-10.82-3.324-19.18-3.188-24.863l-.005.01z"/><path fill="#FFF" d="M467.44 32.135l-18.146 4.804-6.844 18.816s19.824-8.49 24.99-23.62"/><path fill="none" stroke="#FFF" stroke-width="20" stroke-linecap="round" stroke-linejoin="round" d="M467.44 32.135l-18.146 4.804-6.844 18.816s19.824-8.49 24.99-23.62z"/><path fill="#FFF" d="M123.296 102.29c-4.943.47-16.53 1.71-25.36 3.814-11.538 2.76-26.777 8.417-32.994 12.287-6.21 3.857-13.243 10.336-13.137 17.3.09 6.954 7.156 11.712 7.156 11.712-4.664 3.13-18.944 3.283-18.944 3.283l-.1-.57s11.987.027 16.65-3.096c0 0-7.053-4.755-7.154-11.72-.09-6.96 6.935-13.45 13.156-17.308 6.21-3.87 21.443-9.52 32.98-12.272 11.554-2.756 27.775-4.035 27.775-4.035l-.024.605"/><path fill="none" stroke="#FFF" stroke-width="20" stroke-linecap="round" stroke-linejoin="round" d="M123.296 102.29c-4.943.47-16.53 1.71-25.36 3.814-11.538 2.76-26.777 8.417-32.994 12.287-6.21 3.857-13.243 10.336-13.137 17.3.09 6.954 7.156 11.712 7.156 11.712-4.664 3.13-18.944 3.283-18.944 3.283l-.1-.57s11.987.027 16.65-3.096c0 0-7.053-4.755-7.154-11.72-.09-6.96 6.935-13.45 13.156-17.308 6.21-3.87 21.443-9.52 32.98-12.272 11.554-2.756 27.775-4.035 27.775-4.035l-.024.605h-.004z"/><path fill="#FFF" d="M49.896 229.3s-9.31-4.82-9.453-18.463c-.123-13.64 8.57-25.114 15.64-31.633 7.082-6.51 19.187-16.453 31.084-21.823 11.888-5.38 20.95-7.467 25.333-8.337l.244-1.417s-15.373 2.894-25.99 8.19c-10.63 5.324-22.857 13.074-32.014 21.91-9.16 8.82-16.276 17.217-16.538 32.45-.25 15.242 9.303 19.088 11.694 19.124"/><path fill="none" stroke="#FFF" stroke-width="20" stroke-linecap="round" stroke-linejoin="round" d="M49.896 229.3s-9.31-4.82-9.453-18.463c-.123-13.64 8.57-25.114 15.64-31.633 7.082-6.51 19.187-16.453 31.084-21.823 11.888-5.38 20.95-7.467 25.333-8.337l.244-1.417s-15.373 2.894-25.99 8.19c-10.63 5.324-22.857 13.074-32.014 21.91-9.16 8.82-16.276 17.217-16.538 32.45-.25 15.242 9.303 19.088 11.694 19.124z"/><path fill="#FFF" d="M43.738 241.077s27.345-.827 54.813-19.394c31.117-21.048 41.82-44.56 52.1-78.55 0 0 4.055-1.01 5.177-.918l-.27.792s-1.598.09-2.363.45c0 0-10.663 32.76-18.68 44.812-8.033 12.08-22.042 30.598-51.228 43.53-10.484 4.645-21.556 8.123-39.548 9.277"/><path fill="none" stroke="#FFF" stroke-width="20" stroke-linecap="round" stroke-linejoin="round" d="M43.738 241.077s27.345-.827 54.813-19.394c31.117-21.048 41.82-44.56 52.1-78.55 0 0 4.055-1.01 5.177-.918l-.27.792s-1.598.09-2.363.45c0 0-10.663 32.76-18.68 44.812-8.033 12.08-22.042 30.598-51.228 43.53-10.484 4.645-21.556 8.123-39.548 9.277z"/><path fill="#FFF" d="M159.374 92.917l2.57.628s.548 12.683-7.02 41.2l-2.214.125s7.178-27.082 6.664-41.953"/><path fill="none" stroke="#FFF" stroke-width="20" stroke-linecap="round" stroke-linejoin="round" d="M159.374 92.917l2.57.628s.548 12.683-7.02 41.2l-2.214.125s7.178-27.082 6.664-41.953z"/><path fill="#FFF" d="M200.525 131.856s-.724-1.378-1.957-.84c-1.234.552-11.104 2.204-17.328 21.216-5.473 16.72-2.292 26.793.107 29.953l2.202-.276s-6.876-9.66-.51-28.686c5.583-16.685 11.142-18.66 17.484-21.37"/><path fill="none" stroke="#FFF" stroke-width="20" stroke-linecap="round" stroke-linejoin="round" d="M200.525 131.856s-.724-1.378-1.957-.84c-1.234.552-11.104 2.204-17.328 21.216-5.473 16.72-2.292 26.793.107 29.953l2.202-.276s-6.876-9.66-.51-28.686c5.583-16.685 11.142-18.66 17.484-21.37v.002z"/><path fill="#FFF" d="M199.62 183.188s-9.21 19.52-30.457 18.67c0 0 17.25 5.613 32-16.55l-1.543-2.12"/><path fill="none" stroke="#FFF" stroke-width="20" stroke-linecap="round" stroke-linejoin="round" d="M199.62 183.188s-9.21 19.52-30.457 18.67c0 0 17.25 5.613 32-16.55l-1.543-2.12z"/><path fill="#FFF" d="M226.878 166.91s-.844-3.72-.08-7.05c.76-3.34 13.75-47.978 13.75-47.978l2.666-.632-13.72 48.773s-1.343 3.987-.935 5.854l-1.683 1.03"/><path fill="none" stroke="#FFF" stroke-width="20" stroke-linecap="round" stroke-linejoin="round" d="M226.878 166.91s-.844-3.72-.08-7.05c.76-3.34 13.75-47.978 13.75-47.978l2.666-.632-13.72 48.773s-1.343 3.987-.935 5.854l-1.683 1.03v.003z"/><path fill="#FFF" d="M244.48 170.32s-20.653 21.086-30.832 20.252c0 0 8.867 5.613 32.023-18.918l-1.19-1.334"/><path fill="none" stroke="#FFF" stroke-width="20" stroke-linecap="round" stroke-linejoin="round" d="M244.48 170.32s-20.653 21.086-30.832 20.252c0 0 8.867 5.613 32.023-18.918l-1.19-1.334z"/><path fill="#FFF" d="M276.207 157.23s-6.626-4.635-4.4-21.9c1.83-14.108 5.59-18.002 8.21-21.903 0 0 .194-1.757 1.397-4.33 0 0-9.853 7.924-11.687 25.923-1.842 17.968 3.9 24.235 6.48 22.21"/><path fill="none" stroke="#FFF" stroke-width="20" stroke-linecap="round" stroke-linejoin="round" d="M276.207 157.23s-6.626-4.635-4.4-21.9c1.83-14.108 5.59-18.002 8.21-21.903 0 0 .194-1.757 1.397-4.33 0 0-9.853 7.924-11.687 25.923-1.842 17.968 3.9 24.235 6.48 22.21z"/><path fill="#FFF" d="M289.982 123.68s9.61-1.173 12.85-13.904c3.236-12.748-5.17-13.048-5.17-13.048s7.386-.734 7.925 8.808c0 0-3.865 7.118-5.063 14.085 0 0-5.46 6.75-10.542 4.06"/><path fill="none" stroke="#FFF" stroke-width="20" stroke-linecap="round" stroke-linejoin="round" d="M289.982 123.68s9.61-1.173 12.85-13.904c3.236-12.748-5.17-13.048-5.17-13.048s7.386-.734 7.925 8.808c0 0-3.865 7.118-5.063 14.085 0 0-5.46 6.75-10.542 4.06z"/><path fill="#FFF" d="M304.663 153.438s-20.647 24.37-43.116 24.388c0 0 18.215 5.716 44.46-22.915l-1.344-1.472"/><path fill="none" stroke="#FFF" stroke-width="20" stroke-linecap="round" stroke-linejoin="round" d="M304.663 153.438s-20.647 24.37-43.116 24.388c0 0 18.215 5.716 44.46-22.915l-1.344-1.472z"/><path fill="#FFF" d="M334.274 142.35s-3.587-4.658-3.19-15.54c.557-15.733 6.217-23.835 9.03-26.828 0 0-.414-1.867-.468-2.8 0 0-10.55 9.48-11.03 29.33-.44 18.595 5.658 15.837 5.658 15.838"/><path fill="none" stroke="#FFF" stroke-width="20" stroke-linecap="round" stroke-linejoin="round" d="M334.274 142.35s-3.587-4.658-3.19-15.54c.557-15.733 6.217-23.835 9.03-26.828 0 0-.414-1.867-.468-2.8 0 0-10.55 9.48-11.03 29.33-.44 18.595 5.658 15.837 5.658 15.838z"/><path fill="#FFF" d="M369.654 95.81s-2.184-13.372-12.128-18.303c0 0 11.474 1.237 14.125 17.248l-1.996 1.055"/><path fill="none" stroke="#FFF" stroke-width="20" stroke-linecap="round" stroke-linejoin="round" d="M369.654 95.81s-2.184-13.372-12.128-18.303c0 0 11.474 1.237 14.125 17.248l-1.996 1.055z"/><path fill="#FFF" d="M373.048 105.654l-4.15 2.113s-1.635 16.09-8.95 29.374c-7.323 13.278-18.48 23.31-35.86 23.973 0 0 13.517 3.957 27.52-9.065 13.995-13.022 17.008-32.544 19.232-43.59l1.993-1.065.215-1.74"/><path fill="none" stroke="#FFF" stroke-width="20" stroke-linecap="round" stroke-linejoin="round" d="M373.048 105.654l-4.15 2.113s-1.635 16.09-8.95 29.374c-7.323 13.278-18.48 23.31-35.86 23.973 0 0 13.517 3.957 27.52-9.065 13.995-13.022 17.008-32.544 19.232-43.59l1.993-1.065.215-1.74z"/><path fill="#FFF" d="M415.51 75.34l-.233 3.925-7.47 8.118s-7.16 24.566.124 35.916c0 0-4.58 2.92-5.398-11.615-.82-14.554 2.727-24.636 2.727-24.636l10.25-11.71"/><path fill="none" stroke="#FFF" stroke-width="20" stroke-linecap="round" stroke-linejoin="round" d="M415.51 75.34l-.233 3.925-7.47 8.118s-7.16 24.566.124 35.916c0 0-4.58 2.92-5.398-11.615-.82-14.554 2.727-24.636 2.727-24.636l10.25-11.71z"/><path fill="#FFF" d="M394.507 143.195s15.064.716 26.383-11.986c11.32-12.743 15.964-28.52 17.434-44.61 0 0 17.945-7.6 25.63-14.453l.124 2.175s-8.96 6.782-23.037 12.752c0 0-1.667 29.94-19.072 46.256-14.44 13.52-27.46 9.865-27.46 9.865"/><path fill="none" stroke="#FFF" stroke-width="20" stroke-linecap="round" stroke-linejoin="round" d="M394.507 143.195s15.064.716 26.383-11.986c11.32-12.743 15.964-28.52 17.434-44.61 0 0 17.945-7.6 25.63-14.453l.124 2.175s-8.96 6.782-23.037 12.752c0 0-1.667 29.94-19.072 46.256-14.44 13.52-27.46 9.865-27.46 9.865z"/><path fill="#FFF" d="M438.228 76.256s-1.11-5.586-4.697-7.268c0 0 4.554-.732 6.685 6.207l-1.987 1.06"/><path fill="none" stroke="#FFF" stroke-width="20" stroke-linecap="round" stroke-linejoin="round" d="M438.228 76.256s-1.11-5.586-4.697-7.268c0 0 4.554-.732 6.685 6.207l-1.987 1.06z"/><path fill="#FFF" d="M456.985 114.266s-4.283-2.907-4-6.37c0 0 3.22.192 5.346-.63 1.4-.517 6.68-4.293 7.53-9.513.726-4.225-.936-8.41-5.426-9.257 0 0 4.507 4.265 3.208 9.077-1.494 5.568-3.983 7.19-6.308 8.67-1.607 1.012-6.62.533-6.62.533s1.62 9.168 6.27 7.49"/><path fill="none" stroke="#FFF" stroke-width="20" stroke-linecap="round" stroke-linejoin="round" d="M456.985 114.266s-4.283-2.907-4-6.37c0 0 3.22.192 5.346-.63 1.4-.517 6.68-4.293 7.53-9.513.726-4.225-.936-8.41-5.426-9.257 0 0 4.507 4.265 3.208 9.077-1.494 5.568-3.983 7.19-6.308 8.67-1.607 1.012-6.62.533-6.62.533s1.62 9.168 6.27 7.49z"/><path fill="#FFF" d="M447.996 55.946s17.305-7.727 23.706-23.302l2.812-.624s-6.46 17.133-26.735 25.66c-.002 0-.53-.758.216-1.734"/><path fill="none" stroke="#FFF" stroke-width="20" stroke-linecap="round" stroke-linejoin="round" d="M447.996 55.946s17.305-7.727 23.706-23.302l2.812-.624s-6.46 17.133-26.735 25.66c-.002 0-.53-.758.216-1.734z"/><path fill="#FFF" d="M497.126 42.656s-2.968 11.945-2.12 18.794c.855 6.847 3.858 20.497 3.91 26.916.032 6.433-.646 17.795-6.69 24.69-5.357 6.103-16.473 13.956-31.624 12.146l-.16-.155c13.895-.783 21.88-5.155 28.652-11.35 6.79-6.184 7.213-18.12 7.172-24.55-.06-6.438-3.03-20.07-3.887-26.92-.89-6.86 2.08-18.794 2.08-18.794l2.666-.777"/><path fill="none" stroke="#FFF" stroke-width="20" stroke-linecap="round" stroke-linejoin="round" d="M497.126 42.656s-2.968 11.945-2.12 18.794c.855 6.847 3.858 20.497 3.91 26.916.032 6.433-.646 17.795-6.69 24.69-5.357 6.103-16.473 13.956-31.624 12.146l-.16-.155c13.895-.783 21.88-5.155 28.652-11.35 6.79-6.184 7.213-18.12 7.172-24.55-.06-6.438-3.03-20.07-3.887-26.92-.89-6.86 2.08-18.794 2.08-18.794l2.666-.777z"/><path fill="#FFF" d="M410.844 65.244s9.858-27.226 21.937-40.45l-.41 3.792s-10.2 12.81-16.377 29.938l-5.15 6.72"/><path fill="none" stroke="#FFF" stroke-width="20" stroke-linecap="round" stroke-linejoin="round" d="M410.844 65.244s9.858-27.226 21.937-40.45l-.41 3.792s-10.2 12.81-16.377 29.938l-5.15 6.72z"/><path fill="#FFF" d="M421.452 68.098s17.626-21.382 20.52-34.88c2.865-13.492 2.077-19.264-1.562-22.033 0 0 5.2-.293 5.764 6.74.55 7.03-.996 16.048-5.26 24.756-4.256 8.715-13.495 21.938-15.706 24.737 0 0-2.67.144-3.756.68"/><path fill="none" stroke="#FFF" stroke-width="20" stroke-linecap="round" stroke-linejoin="round" d="M421.452 68.098s17.626-21.382 20.52-34.88c2.865-13.492 2.077-19.264-1.562-22.033 0 0 5.2-.293 5.764 6.74.55 7.03-.996 16.048-5.26 24.756-4.256 8.715-13.495 21.938-15.706 24.737 0 0-2.67.144-3.756.68z"/><path fill="#CE332F" d="M346.688 133.435c-6.194 8.665-11.756 11.53-16.524 9.997-4.758-1.513-8.03-14.094-4.166-26.69 3.868-12.597 8.113-20.485 14.25-24.8 0 0-.846 17.247 13.842 18.96 0 0-1.227 13.88-7.403 22.534zm-142.917 7.678c-.64 3.886-6.426 24.634-8.85 29.122-2.42 4.484-7.787 13.955-14.567 13.867-6.787-.097-6.933-16.432-6.636-19.564.304-3.135 2.253-17.423 9.06-25.45 6.772-8.04 13.905-10.33 16.42-9.63 2.53.73 5.782 4.31 4.574 11.655zM88.03 206.468c-13.968 17.832-23.308 24.75-38.58 24.175-15.27-.578-16.607-19.636-14.808-27.42 1.797-7.785 6.212-20.406 23.717-33.494 17.527-13.093 28.904-18.68 56.317-24.12 0 0-12.682 43.012-26.647 60.858zm330.443-168.36c9.21-15.826 13.7-17.493 14.944-17.278 1.25.213 1.664 4.25-.43 9.48-2.072 5.218-15.76 33.196-29.69 44.756 0 0 5.966-21.136 15.176-36.96v.002zm69.656 19.21c.13-5.68.723-10.937 2.11-14.356l-21.815 5.57s-2.127 8.018-8.106 13.47c-6.004 5.45-12.72 11.392-25.682 16.904 0 0-.652-13.977-11.43-9.92s-5.474 14.325-5.34 14.77c.133.436 2.302 5.208 8.328 4.533 0 0-1.604 13.203-4.588 20.173-2.98 6.944-7.95 16.136-16.476 16.29-8.537.134-6.938-19.3-6.813-21.21.108-1.895 1.402-12.76 2.738-17.177 0 0 24.81-28.097 30.14-38.97 5.327-10.868 12.804-29.644 5.352-36.352-7.448-6.688-35.025 24.012-43.84 40.756-8.822 16.733-12.844 24.968-16.877 41.226 0 0-8.114 5.568-10.297 6.584 0 0-.936-14.54-7.374-19.39-6.47-4.865-12.816-3.838-17.087 1.853 0 0-24.817 1.567-35.6 25.926-7.954 18.034-5.47 32.35-5.47 32.35s-13.518 19.33-25.916 18.25c-12.405-1.09-8.84-23.42-8.272-27.003.605-3.603 4.09-16.72 11.03-23.77 4.98-5.058 6.67-.82 6.67-.82s-4.604 7.605-2.484 11.49c2.12 3.878 6.782 4.848 9.683 2.576 2.91-2.284 8.894-9.847 8.543-16.065-.35-6.2-3.025-9.736-12.3-8.872-9.262.857-21.788 3.78-32.977 14.425-11.204 10.65-16.672 33.094-14.782 46.556 0 0-9.69 11.334-13.26 11.754-3.572.435-4.374-5.65-3.546-9.146.822-3.488 13.42-48.58 13.42-48.58l-26.443 6.947-2.145 5.67s-19.028-10.94-44.543 12.76c0 0-7.454-1.252-15.14.187 0 0 7.817-30.6 7.394-44.14 0 0-30.347-6.635-53.643-5.437-23.282 1.2-49.43 3.46-69.19 19.362-19.76 15.91-22.207 52.53 19.504 39.493 0 0-10.977-8.723-4.2-18.765 6.75-10.02 20.407-22.41 76.736-27.138 0 0 .66 1.747.507 2.878-.172 1.11-.332 10.346-8.575 37.304 0 0-45.348 8.102-70.487 24.315-25.126 16.22-36.004 32.733-35.573 50.296.43 17.543 19.826 26.686 36.532 24.527 16.73-2.18 43.592-13.482 57.818-26.3 14.205-12.81 28.186-25.62 42.136-71.11 0 0 4.153-2.018 11.746-.564 0 0-13.335 20.114-9.39 38.125 3.918 18.035 14.07 26.61 32.078 17.674 11.377-5.656 17.23-19.232 17.23-19.232s.668-.037 1.07 1.056c.398 1.09 4.407 10.43 10.564 10.213 6.154-.256 9.586-1.334 33.505-23.033 0 0 .81.394 1.443 1.468.622 1.067 6.025 9.35 14.627 8.636 8.605-.718 20.012-1.576 43.724-26.938 0 0 .828.617 1.323 1.483.486.857 5.927 9.564 18.27 9.42 12.354-.136 25.647-11.448 31.38-21.017 5.766-9.54 10.255-23.268 10.298-32.494 0 0 7.222-3.638 9.927-5.238 0 0-5.754 41.585 19.793 40.27 25.52-1.34 38.96-31.787 40.056-56.21 0 0 16.847-5.966 30.508-18.535l.46.21s.8 12.19 1.153 14.385c.35 2.21 1.85 10.926 1.876 13.587.052 2.666-.782 18.314-11.55 20.233-8.224 1.448-11.03-8.61-9.953-9.34 1.08-.73 3.67.24 6.332-1.504 1.687-1.076 7.682-5.197 6.522-11.564-1.14-6.4-9.05-5.17-11.772-3.897-2.75 1.26-9.824 9.11-8.542 17.943 1.292 8.82 9.787 18.358 19.79 16.69 10.02-1.686 22.39-5.39 27.644-13.58 5.276-8.206 6.23-17.268 4.71-28.073-1.493-10.82-3.324-19.18-3.188-24.863l-.005.01z"/><path fill="#CE332F" d="M467.44 32.135l-18.146 4.804-6.844 18.816s19.824-8.49 24.99-23.62M123.296 102.29c-4.943.47-16.53 1.71-25.36 3.814-11.538 2.76-26.777 8.417-32.994 12.287-6.21 3.857-13.243 10.336-13.137 17.3.09 6.954 7.156 11.712 7.156 11.712-4.664 3.13-18.944 3.283-18.944 3.283l-.1-.57s11.987.027 16.65-3.096c0 0-7.053-4.755-7.154-11.72-.09-6.96 6.935-13.45 13.156-17.308 6.21-3.87 21.443-9.52 32.98-12.272 11.554-2.756 27.775-4.035 27.775-4.035l-.024.605M49.895 229.3s-9.31-4.82-9.453-18.463c-.123-13.64 8.57-25.114 15.64-31.633 7.082-6.51 19.187-16.453 31.084-21.823 11.888-5.38 20.95-7.467 25.333-8.337l.244-1.417s-15.373 2.894-25.99 8.19c-10.63 5.324-22.857 13.074-32.014 21.91-9.16 8.82-16.276 17.217-16.538 32.45-.25 15.242 9.303 19.088 11.694 19.124m-6.158 11.777s27.345-.827 54.813-19.394c31.117-21.048 41.82-44.56 52.1-78.55 0 0 4.055-1.01 5.177-.918l-.27.792s-1.598.09-2.363.45c0 0-10.663 32.76-18.68 44.812-8.033 12.08-22.042 30.598-51.228 43.53-10.484 4.645-21.556 8.123-39.548 9.277m115.636-148.16l2.57.628s.548 12.683-7.02 41.2l-2.214.125s7.178-27.082 6.664-41.953m41.15 38.94s-.723-1.38-1.956-.84c-1.234.55-11.104 2.203-17.328 21.215-5.473 16.72-2.292 26.793.107 29.953l2.202-.276s-6.876-9.66-.51-28.686c5.583-16.685 11.142-18.66 17.484-21.37m-.904 51.334s-9.21 19.52-30.457 18.67c0 0 17.25 5.613 32-16.55l-1.543-2.12m27.258-16.278s-.844-3.72-.08-7.05c.76-3.34 13.75-47.978 13.75-47.978l2.666-.632-13.72 48.773s-1.343 3.987-.935 5.854l-1.683 1.03m17.603 3.413s-20.653 21.086-30.832 20.252c0 0 8.867 5.613 32.023-18.918l-1.19-1.334m31.727-13.09s-6.626-4.635-4.4-21.9c1.83-14.108 5.59-18.002 8.21-21.903 0 0 .194-1.757 1.397-4.33 0 0-9.853 7.924-11.687 25.923-1.842 17.968 3.9 24.235 6.48 22.21m13.775-33.55s9.61-1.173 12.85-13.904c3.236-12.748-5.17-13.048-5.17-13.048s7.386-.734 7.925 8.808c0 0-3.865 7.118-5.063 14.085 0 0-5.46 6.75-10.542 4.06m14.68 29.758s-20.646 24.37-43.115 24.388c0 0 18.215 5.716 44.46-22.915l-1.344-1.472m29.61-11.088s-3.586-4.658-3.19-15.54c.558-15.733 6.218-23.835 9.03-26.828 0 0-.413-1.867-.467-2.8 0 0-10.55 9.48-11.03 29.33-.44 18.595 5.658 15.837 5.658 15.838m35.38-46.54s-2.184-13.372-12.128-18.303c0 0 11.474 1.237 14.125 17.248l-1.996 1.055m3.394 9.844l-4.15 2.113s-1.635 16.09-8.95 29.374c-7.323 13.278-18.48 23.31-35.86 23.973 0 0 13.517 3.957 27.52-9.065 13.995-13.022 17.008-32.544 19.232-43.59l1.993-1.065.215-1.74M415.51 75.34l-.233 3.925-7.47 8.118s-7.16 24.566.124 35.916c0 0-4.58 2.92-5.398-11.615-.82-14.554 2.727-24.636 2.727-24.636l10.25-11.71m-21.003 67.855s15.064.716 26.383-11.986c11.32-12.743 15.964-28.52 17.434-44.61 0 0 17.945-7.6 25.63-14.453l.124 2.175s-8.96 6.782-23.037 12.752c0 0-1.667 29.94-19.072 46.256-14.44 13.52-27.46 9.865-27.46 9.865m43.72-66.94s-1.11-5.585-4.697-7.267c0 0 4.554-.732 6.685 6.207l-1.987 1.06m18.757 38.01s-4.283-2.906-4-6.37c0 0 3.22.193 5.346-.63 1.4-.516 6.68-4.292 7.53-9.512.726-4.225-.936-8.41-5.426-9.257 0 0 4.507 4.265 3.208 9.077-1.494 5.568-3.983 7.19-6.308 8.67-1.607 1.012-6.62.533-6.62.533s1.62 9.168 6.27 7.49"/><path fill="#CE332F" d="M447.996 55.946s17.305-7.727 23.706-23.302l2.812-.624s-6.46 17.133-26.735 25.66c-.002 0-.53-.758.216-1.734m49.13-13.29s-2.968 11.945-2.12 18.794c.855 6.847 3.858 20.497 3.91 26.916.032 6.433-.646 17.795-6.69 24.69-5.357 6.103-16.473 13.956-31.624 12.146l-.16-.155c13.895-.783 21.88-5.155 28.652-11.35 6.79-6.184 7.213-18.12 7.172-24.55-.06-6.438-3.03-20.07-3.887-26.92-.89-6.86 2.08-18.794 2.08-18.794l2.666-.777m-86.282 22.588s9.858-27.226 21.937-40.45l-.41 3.792s-10.2 12.81-16.377 29.938l-5.15 6.72m10.61 2.854s17.625-21.382 20.52-34.88c2.864-13.492 2.076-19.264-1.563-22.033 0 0 5.2-.293 5.764 6.74.55 7.03-.996 16.048-5.26 24.756-4.256 8.715-13.495 21.938-15.706 24.737 0 0-2.67.144-3.756.68"/><path fill="#1A1918" d="M159.716 52.762c0 .894.416.932 1.082 1.34.46.3.75.486.75.934 0 .447-.416.782-1.082.782h-5.87c-.666 0-1.082-.298-1.082-.782 0-.82 1.124-.82 2.165-1.342.663-.336.83-1.082 1.08-2.31l3.58-18.003c.125-.595.166-1.08.166-1.452 0-.82-.334-.932-1.29-1.23-.917-.26-1.416-.52-1.416-1.043 0-.447.417-.745 1.083-.745h5.58c1.123 0 1.456.112 1.79 1.23.79 2.57 2.247 8.35 5.285 17.108l4.995-6.86c1.5-2.086 4.08-5.552 7.285-10.658.458-.746.707-.82 1.457-.82h5.744c.623 0 .914.26.914.745 0 .82-.916.858-2.08 1.23-1.29.373-1.25.746-1.54 2.46l-3.29 18.003c-.125.67-.125 1.118-.125 1.416 0 .894.374.932 1.04 1.34.457.3.79.486.79.934 0 .447-.415.782-1.08.782h-6.204c-.624 0-.957-.298-.957-.782 0-.784 1-.82 1.913-1.342.583-.336.75-1.082.958-2.31l3.415-18.712-13.404 19.01c-.332.446-.582.707-.873.707-1.54 0-3.164-6.635-7.243-19.79l-3.372 18.747c-.125.67-.167 1.117-.166 1.415m49.454-8.274c-.96-3.99-2.25-7.902-3.706-11.74-3.205 3.987-5.662 7.938-7.742 11.74h11.448zm-21.19 10.548c0-.858 1.333-.82 2.082-1.64.54-.596 1.207-2.684 2.914-5.852 2.373-4.398 5.412-9.17 9.158-14.163 2.622-3.465 3.913-5.254 4.62-5.254.708 0 1.25 1.64 2.498 4.845 1.374 3.43 2.748 7.754 3.955 12.823.957 4.062 1.165 6.56 1.415 7.38.25.894 1.623.857 1.623 1.714 0 .71-.54.932-1.79.932h-5.203c-.624 0-.958-.3-.958-.783 0-.597.542-.747 1.25-1.045.832-.334 1.165-.446 1.165-1.34 0-.67-.293-2.72-1.126-6.038h-13.07c-2.04 3.615-2.956 5.813-2.956 6.448 0 1.043 1.79 1.006 1.79 1.976 0 .447-.418.782-1.083.782h-5.328c-.626 0-.96-.298-.96-.782l.003-.002zm38.25-2.274c0 .894.418.932 1.084 1.34.457.3.79.486.79.934 0 .447-.416.782-1.082.782h-6.286c-.624 0-.957-.298-.957-.782 0-.784 1.04-.82 1.955-1.342.582-.336.748-1.082.957-2.31l3.413-18.898c.042-.187.083-.485.083-.82 0-.708-.5-.895-1.833-.895-2.455 0-4.37.413-5.91 1.456-1.25.82-1.916 1.752-2.748 1.752-.46 0-.583-.186-.583-.634 0-.373.124-.857.332-1.528.415-1.23.707-2.05 1.08-2.534.293-.372.96-.372 2.166-.372h19.357c1.165 0 1.747.038 1.747.857l-.04 3.392c0 .484-.25.78-.667.78-.874 0-1.206-.857-2.04-1.676-1.08-1.044-2.705-1.492-5.16-1.492-1.416 0-1.79.263-1.998 1.455l-3.498 19.12c-.124.67-.166 1.12-.166 1.417m18.152-1.418c-.125.67-.166 1.118-.166 1.416 0 .894.416.932 1.082 1.34.457.3.79.486.79.934 0 .447-.415.782-1.08.782h-6.245c-.624 0-.915-.298-.915-.782 0-.784 1-.82 1.915-1.342.582-.336.748-1.082.957-2.31l3.247-18.003c.125-.67.166-1.154.166-1.452 0-.894-.416-.894-1.082-1.304-.458-.3-.75-.485-.75-.933 0-.445.417-.78 1.083-.78h5.913c.875 0 1.29.222 1.29.744 0 .82-1 .858-1.956 1.38-.624.335-.79 1.08-1 2.31l-1.206 6.783h17.275l1.207-6.745c.125-.633.166-1.117.166-1.453 0-.895-.416-.895-1.082-1.305-.457-.3-.75-.485-.75-.933 0-.446.418-.782 1.084-.782h5.91c.875 0 1.29.223 1.29.745 0 .82-.997.858-1.956 1.38-.625.335-.79 1.08-.998 2.31l-3.246 18.003c-.127.67-.168 1.118-.168 1.416 0 .894.416.932 1.082 1.34.457.3.79.486.79.934 0 .447-.415.782-1.083.782H259.7c-.624 0-.914-.298-.914-.782 0-.784 1-.82 1.913-1.342.584-.336.75-1.082.96-2.31l1.663-9.208h-17.273l-1.666 9.17m38.337-21.658c0 .67-.458.858-1.164 1.193-.668.3-1.332.373-1.873 1.566-.375.78-.834 2.644-1.54 5.663-1.208 5.106-1.917 8.61-1.917 10.585 0 3.8 2.582 5.85 7.535 5.85 5.87 0 9.033-2.795 10.28-8.758 1.043-4.958 1.5-9.765 1.5-13.38 0-.672-.166-1.156-.583-1.417-.79-.484-1.665-.67-1.665-1.305 0-.56.5-.782 1.498-.782h5.204c.79 0 1.25.038 1.25.633 0 1.044-1.71 1.082-2.54 1.976-.5.484-.46 2.087-.708 4.92-.583 6.597-1.29 11.368-2.747 14.275-1.874 3.8-5.996 5.85-11.908 5.85-7.035 0-10.906-2.755-10.906-7.266 0-2.683.666-5.702 1.54-9.206 1.04-4.324 1.874-6.858 1.874-7.79 0-.932-.253-1.044-.918-1.454-.416-.26-.873-.41-.873-.97 0-.632.5-.968 1.5-.968h5.702c1.08 0 1.454.112 1.454.782m17.78 20.577c0-2.013 1.164-3.318 2.954-3.318 1.292 0 2.04.67 2.04 1.64 0 1.305-1.04 2.125-1.04 2.833 0 1.602 2.79 3.168 7.24 3.168 5.29 0 8.62-2.572 8.62-6.224 0-.82-.375-1.64-1.043-2.2-2.04-1.64-5.035-2.31-8.407-3.652-4.328-1.714-6.41-3.615-6.41-6.523 0-4.325 4.247-7.755 11.03-7.755 2.955 0 5.744.746 8.492 2.2.54.298.54.56.54 1.268 0 3.093-.04 4.398-1.207 4.398-1.206 0-1.123-1.342-1.83-2.907-.874-1.975-2.83-2.907-6.12-2.907-4.285 0-6.91 2.162-6.91 4.882 0 1.267.544 2.273 1.583 2.944 2.123 1.38 4.87 2.05 7.618 3.168 4.33 1.715 6.41 3.28 6.41 6.597 0 4.956-4.747 8.758-12.364 8.758-6.95 0-11.197-2.832-11.197-6.373m24.892 4.774c0-.784 1.04-.82 1.955-1.342.585-.336.752-1.082.96-2.31l3.247-18.003c.125-.67.167-1.154.167-1.452 0-.894-.418-.894-1.084-1.304-.458-.3-.79-.485-.79-.933 0-.445.417-.78 1.082-.78h19.565c.916 0 1.29.037 1.29.894 0 2.534 0 3.652-.874 3.652-.833 0-1.04-.932-1.914-1.64-1.044-.82-3.416-1.044-7.246-1.044-2.413 0-4.12.04-5.204.486-1.08.448-1.246 1.416-1.54 3.02l-1.04 5.813h8.575c.958 0 1.666 0 2.207-.186.583-.224 1.083-1.044 1.998-1.044.46 0 .707.222.707.67 0 .075 0 .187-.04.3l-.5 2.868c-.083.448-.417.746-1.04.746-.708 0-1.084-.634-1.708-.97-.334-.186-1.376-.335-3.08-.335h-7.495l-1.624 9.092c-.122.672-.165 1.156-.165 1.38 0 1.23 1.082 1.34 4.08 1.34h2.54c3.162 0 5.618-.073 7.575-1.005 1.624-.746 2.415-2.05 3.498-2.05.33 0 .623.26.623.56 0 .223-.04.52-.206.894l-.998 2.46c-.417.97-.834 1.007-1.915 1.007h-20.645c-.625 0-.96-.298-.96-.78m39.713-2.275c0 .894.415.932 1.082 1.34.458.3.79.486.79.934 0 .447-.415.782-1.083.782h-6.284c-.624 0-.956-.298-.956-.782 0-.784 1.04-.82 1.955-1.342.583-.336.75-1.082.957-2.31l3.412-18.898c.042-.187.082-.485.082-.82 0-.708-.498-.895-1.83-.895-2.457 0-4.37.413-5.91 1.456-1.25.82-1.916 1.752-2.75 1.752-.456 0-.58-.186-.58-.634 0-.373.124-.857.333-1.528.415-1.23.707-2.05 1.08-2.534.293-.372.957-.372 2.165-.372h19.356c1.166 0 1.748.038 1.748.857l-.04 3.392c0 .484-.25.78-.667.78-.875 0-1.208-.857-2.04-1.676-1.084-1.044-2.706-1.492-5.163-1.492-1.415 0-1.79.263-1.997 1.455l-3.496 19.12c-.125.67-.166 1.12-.166 1.417M156.82 241.354c.276-1.65.45-2.424.45-3 0-.574-.2-.725-.674-.875-.3-.1-.674-.2-.674-.6 0-.55.45-.526 1.2-.526h3.123c.525 0 1.1-.025 1.1.45 0 .425-.3.524-.65.6-.524.124-.875.35-1.1.874-.25.6-.3.95-.775 3.773l-.674 4.2c3.25-2.5 5.75-4.624 7.248-6.123 1.175-1.176 1.375-1.652 1.375-1.977 0-.7-1.05-.524-1.05-1.15 0-.573.55-.674 1-.674h3.722c.375 0 .75.1.75.55 0 .474-.375.624-.775.774-.675.274-.825.45-1.35.975-1.9 1.848-3.9 3.698-5.973 5.396 1.924 2.352 3.6 5.352 4.55 8.226.573 1.727 1.398 1 1.398 1.8 0 .375-.25.575-.625.575h-3.524c-.275 0-.55-.074-.55-.425 0-.773 1.15-.524 1.15-1.35 0-.8-.975-3.6-3.9-7.598-1.324 1.125-2.498 2-3.798 2.975-.525 2.85-.675 3.75-.675 4.398 0 .55.2.7.676.875.3.1.7.175.7.574 0 .4-.3.55-.675.55h-4.172c-.325 0-.575-.1-.575-.45 0-.425.3-.524.625-.625.525-.124.875-.35 1.1-.85.225-.5.4-1.574.774-3.8l1.25-7.547m30.346 2.23c0-3.523-1.7-6.3-5.498-6.3-5.274 0-7.724 5.75-7.724 10.323 0 3.425 1.825 6.1 5.45 6.1 5.422 0 7.772-5.323 7.772-10.122zm-15.62 3.474c0-4.174 3.023-11.098 10.32-11.098 4.825 0 7.75 3.15 7.75 7.924 0 5.948-3.9 11.122-10.123 11.122-4.9 0-7.948-3.023-7.947-7.948zm22.648-7.573c.05-.352.125-.726.125-1.075 0-.575-.25-.75-.773-.9-.35-.1-.725-.15-.725-.6 0-.45.45-.575.826-.575h3.174c.55 0 .6.45.675.9l1.375 5.497c.45 1.85 1 3.75 1.675 5.574l.2.575c1.024-1.55 4.773-7.923 7.148-11.896.275-.477.425-.65.875-.65h3.4c.35 0 .624.022.624.35 0 .423-.3.624-.675.7-.55.123-1.026.2-1.3.773-.25.55-.626 2.95-.776 3.7-1.474 8.222-1.65 9.646-1.65 10.596 0 1.3 1.275.775 1.275 1.525 0 .474-.276.65-.676.65h-4.073c-.476 0-.576-.177-.576-.45 0-.377.25-.45.55-.575.375-.15.825-.3 1-.675.2-.425.4-1.8.5-2.325l2.3-12.346-7.15 11.997c-1.173 1.826-1.523 2.177-1.673 2.177-.224 0-.324-.2-.4-.35-1.6-4.95-2.95-10.147-3.75-13.447L194.17 249c-.15.977-.35 2.5-.35 3.45 0 1.475 1.25.726 1.25 1.625 0 .425-.374.55-.724.55h-3.624c-.4 0-.55-.175-.55-.4 0-.5.525-.65.925-.8 1.125-.425 1.05-1.3 1.224-2.35l1.876-11.596m22.924 6.747c5.9 0 9.248-2.7 9.248-5.547 0-2.15-1.8-3.177-4.75-3.177-.698 0-2.073.075-2.648.524-.475.375-.6.85-.875 2.498l-.975 5.702zm-1.3-4.873c.3-1.85.426-2.3.426-2.9 0-.574-.125-.824-.65-1-.325-.1-.7-.2-.7-.6 0-.524.425-.524 1.3-.524h6.348c2.724 0 6.173.65 6.173 4.073 0 3.85-4.448 7.123-11.82 7.123-.626 3.45-.75 4.324-.75 4.975 0 .6.124.776.65 1l.273.1c.25.102.4.227.4.5 0 .4-.325.526-.65.526h-4.173c-.326 0-.576-.1-.576-.45 0-.425.303-.524.627-.625.55-.123.85-.35 1.1-.873.2-.425.325-1.1.775-3.8l1.25-7.522h-.002zm17.45 3.998c3-.3 9.298-1.274 9.298-5.273 0-2.45-2.674-2.7-4.55-2.7-.848 0-2.548.025-3.198.55-.5.4-.625 2-.75 2.6l-.8 4.822zm-1.45-4c.3-1.873.426-2.522.426-3 0-.547-.176-.723-.65-.873-.325-.126-.675-.2-.675-.626 0-.375.3-.525.65-.525h7.825c3.824 0 5.55.75 5.55 3.223 0 3.024-2.826 5.048-5.475 5.798 1.348 2 2.148 4.226 2.698 6.525.175.774.25 1.3 1 1.674.275.124.5.25.5.574 0 .35-.15.5-.475.5h-4.3c-.274 0-.374-.175-.374-.425 0-.852 1.523-.426 1.523-1.626 0-.95-.575-3.648-2.625-6.6-1.4.4-2.9.65-4.374.802l-.476 2.85c-.225 1.3-.424 2.323-.424 3.023 0 .575.2.674.65.85l.3.1c.224.074.4.225.4.5 0 .4-.3.524-.65.524h-4.2c-.3 0-.575-.125-.575-.45 0-.45.3-.524.625-.625.55-.15.85-.35 1.1-.875.225-.45.35-1.2.775-3.775l1.25-7.548zm30.348 2.226c0-3.523-1.7-6.3-5.5-6.3-5.273 0-7.722 5.75-7.722 10.323 0 3.425 1.824 6.1 5.45 6.1 5.422 0 7.772-5.323 7.772-10.122zm-15.62 3.474c0-4.174 3.022-11.098 10.32-11.098 4.823 0 7.75 3.15 7.75 7.924 0 5.948-3.9 11.122-10.124 11.122-4.898 0-7.947-3.023-7.946-7.948zm22.647-7.573c.05-.352.125-.726.125-1.075 0-.575-.25-.75-.774-.9-.35-.1-.726-.15-.726-.6 0-.45.45-.575.826-.575h3.174c.55 0 .6.45.676.9l1.374 5.497c.45 1.85 1 3.75 1.674 5.574l.2.575c1.023-1.55 4.773-7.923 7.148-11.896.274-.477.424-.65.875-.65h3.4c.35 0 .623.022.623.35 0 .423-.3.624-.674.7-.55.123-1.025.2-1.3.773-.25.55-.626 2.95-.774 3.7-1.475 8.222-1.65 9.646-1.65 10.596 0 1.3 1.275.775 1.275 1.525 0 .474-.275.65-.675.65h-4.074c-.476 0-.575-.177-.575-.45 0-.377.25-.45.55-.575.374-.15.825-.3 1-.675.2-.425.4-1.8.5-2.325l2.3-12.346-7.148 11.997c-1.175 1.826-1.525 2.177-1.675 2.177-.226 0-.326-.2-.4-.35-1.6-4.95-2.95-10.147-3.75-13.447L269.17 249c-.15.977-.35 2.5-.35 3.45 0 1.475 1.25.726 1.25 1.625 0 .425-.375.55-.725.55h-3.625c-.4 0-.548-.175-.548-.4 0-.5.524-.65.925-.8 1.123-.425 1.05-1.3 1.225-2.35l1.875-11.597m21.623 1.876c.324-1.975.45-2.524.45-2.95 0-.574-.2-.724-.675-.925-.326-.126-.7-.2-.7-.6s.325-.55.675-.55h4.2c.3 0 .572.123.572.475 0 .424-.3.523-.65.6-.522.15-.85.324-1.073.873-.228.524-.4 1.3-.802 3.773l-1.25 7.574c-.3 1.75-.424 2.25-.424 2.875 0 .55.174.8.65 1l.3.1c.224.1.4.225.4.5 0 .4-.326.524-.65.524h-4.2c-.324 0-.574-.1-.574-.45 0-.425.3-.525.625-.625.55-.15.85-.3 1.1-.875.2-.476.326-1.125.775-3.774l1.25-7.546m12.974-4.15c-2.825 0-4.2 1.825-4.2 3.374 0 4.225 9.274 3.35 9.274 8.423 0 3.95-3.726 6-7.25 6-2.6 0-6.697-1.174-6.697-4.373 0-1.2.602-2.175 1.852-2.175.6 0 1.15.376 1.15 1 0 .526-.55.976-.55 1.7 0 1.175 1.75 2.475 4.373 2.475 2.273 0 4.874-1.3 4.874-3.924 0-4.27-9.374-2.973-9.374-8.497 0-3.474 3.324-5.25 6.397-5.25 1.55 0 3.15.353 4.525 1 1.074.5 1.125.626 1.125 1.274 0 .427-.15 2.3-.276 2.625-.1.226-.273.35-.5.35-.45 0-.65-.374-.7-.924-.2-2.75-2.897-3.073-4.022-3.073m15.5-.003c-2.826 0-4.2 1.825-4.2 3.374 0 4.225 9.273 3.35 9.273 8.423 0 3.95-3.726 6-7.25 6-2.6 0-6.697-1.174-6.697-4.373 0-1.2.602-2.175 1.852-2.175.6 0 1.15.376 1.15 1 0 .526-.55.976-.55 1.7 0 1.175 1.75 2.475 4.373 2.475 2.273 0 4.874-1.3 4.874-3.924 0-4.27-9.374-2.973-9.374-8.497 0-3.474 3.324-5.25 6.397-5.25 1.55 0 3.15.353 4.525 1 1.074.5 1.125.626 1.125 1.274 0 .427-.15 2.3-.276 2.625-.1.226-.273.35-.5.35-.45 0-.65-.374-.7-.924-.2-2.75-2.897-3.073-4.022-3.073m10.025 4.12c.3-1.85.424-2.45.424-3 0-.55-.2-.7-.65-.873-.325-.125-.7-.175-.7-.6 0-.525.426-.525 1.2-.525h3.4c.624 0 1.074 0 1.074.45 0 .473-.375.55-.75.622-.625.125-.95.226-1.25.875-.226.5-.4 1.574-.774 3.773l-1.024 6.174c-.35 2.1-.45 2.75-.45 3.8 0 .724.05 1.1.823 1.224.7.125 1.824.15 2.55.15 2.425 0 4.374-.174 6.224-1.65.25-.2.35-.273.5-.273.174 0 .4.174.4.375 0 .375-.625 2.024-.825 2.375-.25.4-.5.4-1 .4h-12.297c-.3 0-.5-.126-.5-.45 0-.4.3-.5.625-.626.574-.25.824-.45 1.023-1.075.15-.5.326-1.15.727-3.574l1.25-7.572m17.124 10.722c.85 1.025 2.2 1.65 3.95 1.65 5.423 0 7.77-5.323 7.77-10.122 0-1.426-.274-2.7-.85-3.725l-10.87 12.197zm10.223-13.12c-.875-1.025-2.2-1.65-4-1.65-5.273 0-7.723 5.748-7.723 10.322 0 1.35.274 2.6.85 3.574l10.873-12.246zm-11.898 14.995c-.127.15-.65.825-.927.825-.25 0-.574-.325-.574-.575 0-.274.6-.823.725-.975l.5-.55c-1.276-1.375-1.95-3.274-1.95-5.6 0-4.173 3.024-11.097 10.323-11.097 2.023 0 3.723.55 5.022 1.575l.3-.326c.177-.2.8-1 1.127-1 .25 0 .573.3.573.574 0 .3-.573.824-.724 1l-.475.524c1.25 1.35 1.927 3.274 1.927 5.574 0 5.948-3.9 11.122-10.123 11.122-2.15 0-3.9-.575-5.225-1.625l-.5.55v.005zm25.523-16.72c-2.825 0-4.2 1.824-4.2 3.373 0 4.225 9.274 3.35 9.274 8.423 0 3.95-3.726 6-7.248 6-2.602 0-6.7-1.174-6.7-4.373 0-1.2.6-2.175 1.85-2.175.6 0 1.15.376 1.15 1 0 .526-.55.976-.55 1.7 0 1.175 1.75 2.475 4.373 2.475 2.273 0 4.873-1.3 4.873-3.924 0-4.27-9.372-2.973-9.372-8.497 0-3.474 3.324-5.25 6.397-5.25 1.552 0 3.15.353 4.525 1 1.075.5 1.125.626 1.125 1.274 0 .427-.15 2.3-.276 2.625-.1.226-.273.35-.5.35-.45 0-.65-.374-.7-.924-.2-2.75-2.897-3.073-4.022-3.073M201.695 269.48c.05-.352.125-.726.125-1.075 0-.575-.25-.75-.774-.9-.35-.1-.725-.15-.725-.6 0-.45.45-.575.827-.575h3.174c.55 0 .6.45.676.9l1.374 5.497c.45 1.85 1 3.75 1.674 5.574l.2.575c1.025-1.55 4.774-7.923 7.148-11.896.275-.477.425-.65.875-.65h3.4c.35 0 .624.022.624.35 0 .423-.3.624-.673.7-.55.123-1.025.2-1.3.773-.25.55-.624 2.95-.774 3.7-1.475 8.222-1.65 9.646-1.65 10.596 0 1.3 1.275.775 1.275 1.525 0 .474-.275.65-.675.65h-4.074c-.476 0-.576-.177-.576-.45 0-.377.25-.45.55-.575.375-.15.825-.3 1-.675.2-.425.4-1.8.5-2.325l2.3-12.346-7.15 11.997c-1.174 1.826-1.524 2.177-1.674 2.177-.226 0-.326-.2-.4-.35-1.6-4.95-2.95-10.148-3.75-13.447L201.67 279c-.15.977-.35 2.5-.35 3.45 0 1.475 1.25.726 1.25 1.625 0 .425-.375.55-.725.55h-3.624c-.4 0-.547-.175-.547-.4 0-.5.524-.65.924-.8 1.125-.425 1.05-1.3 1.225-2.35l1.875-11.597m30.42 7.524c-.55-2.7-1.2-5.45-2.373-7.947-2 2.424-3.6 5.174-5.074 7.947h7.448zm-8.147 1.3c-.525.875-1.85 3.45-1.85 4.35 0 1 1.075.698 1.075 1.35 0 .524-.575.624-.975.624h-2.3c-.7 0-1.05 0-1.05-.425 0-.324.15-.473.4-.65.776-.5.726-.55 1.126-1.423 2.6-5.624 5.823-11.147 9.773-15.946.1-.1.223-.225.397-.225.25 0 .5.6.575.75 1.975 4.174 3.324 9.673 4.45 16.246.05.277.224.4.5.55.25.15.474.25.474.55 0 .477-.5.576-.875.576h-3.5c-.3 0-.623-.1-.623-.475 0-.35.3-.5.6-.624.675-.275.925-.325.925-1.125 0-.624-.175-1.974-.675-4.098h-8.448zm20.374-8.448c.176-1.024.275-1.5.275-1.95 0-.474-.6-.4-.95-.4-2.6 0-3.65.677-5 1.927-.15.15-.275.274-.5.274-.25 0-.4-.176-.4-.4 0-.275.55-1.873.675-2.225.15-.478.175-.75.675-.75h13.573c.375 0 .674 0 .674 1.923 0 .425.076 1.425-.6 1.425-.874 0-.874-2.176-4.773-2.176-.925 0-1.025.075-1.25 1.4l-1.85 10.722c-.275 1.65-.4 2.45-.4 3 0 .574.176.675.65.874l.275.1c.25.1.4.226.4.5 0 .4-.327.525-.65.525h-4.25c-.35 0-.576-.125-.576-.5 0-.4.3-.476.65-.575.525-.124.875-.35 1.075-.85.224-.574.324-1.125.774-3.8l1.5-9.048m25.922 5.552c.375 0 .75 0 .75.35 0 .275-.773 2.125-.974 6-.026.475-.175.6-.6.924-1.825 1.374-5.074 2.324-7.323 2.324-4.802 0-8.6-2.9-8.6-7.947 0-4.625 3.45-11.1 11.046-11.1 1.5 0 3.125.275 4.5.9.875.426 1.873.926 1.873 2.025 0 .374-.1.824-.148 1.174-.076.475-.05 1.475-.75 1.475-.5 0-.6-.45-.675-.9-.575-2.424-2.874-3.273-5.15-3.273-6.047 0-8.146 6.672-8.146 9.647 0 5.426 4.05 6.648 6.35 6.648 1.375 0 3.124-.4 4.2-1.35 1.1-1 1.473-2.873 1.473-4.322 0-.85-.324-1.176-1.974-1.176h-.777c-.773 0-.924-.125-.924-.475 0-.65.374-.926 1-.926h4.847m5.053-4.072c.3-1.85.425-2.45.425-3 0-.55-.2-.7-.65-.874-.325-.125-.7-.175-.7-.6 0-.525.426-.525 1.2-.525h3.4c.624 0 1.073 0 1.073.45 0 .473-.375.55-.75.622-.625.125-.95.226-1.25.875-.226.5-.4 1.574-.774 3.773l-1.024 6.174c-.35 2.1-.45 2.75-.45 3.8 0 .724.05 1.1.823 1.224.7.125 1.825.15 2.55.15 2.426 0 4.374-.174 6.225-1.65.25-.2.35-.273.5-.273.174 0 .4.174.4.375 0 .375-.626 2.024-.825 2.375-.25.4-.5.4-1 .4h-12.297c-.3 0-.5-.126-.5-.45 0-.4.3-.5.625-.626.575-.25.825-.45 1.025-1.075.15-.5.326-1.15.726-3.574l1.25-7.572m22.773 2.8c.75 0 1.075-.1 1.7-.524.2-.125.375-.275.625-.275s.375.224.375.424c0 .274-.1.8-.15 1.074-.2 1.1-.324 1.35-.774 1.35-.3 0-.45-.175-.65-.35-.326-.275-.675-.4-1.1-.4h-5.324l-.576 3.324c-.175 1.126-.425 2.524-.425 3.626 0 .4.125.7.5.85.474.225 1.6.2 2.125.2 4.898 0 5.598-.624 6.797-1.6.226-.2.5-.5.826-.5.174 0 .375.1.375.274 0 .35-.625 2.05-.776 2.45-.175.45-.324.575-.8.575h-12.67c-.327 0-.626-.074-.626-.475 0-.424.3-.5.65-.6.523-.15.824-.324 1.074-.875.324-.75.65-2.875.8-3.775l1.25-7.57c.124-.7.45-2.275.45-2.925 0-.575-.176-.775-.676-.925-.324-.127-.7-.2-.7-.627 0-.524.425-.524 1.25-.524h11.298c.524 0 .7.15.7.8 0 1.802-.176 2.25-.626 2.25-.25 0-.4-.226-.524-.425-.5-.675-1.05-.925-1.85-1.125-.824-.2-2.125-.227-3-.227-.773 0-2.8-.024-3.348.576-.45.472-.575 1.75-.7 2.396l-.6 3.55 5.1.002m10.376 6.548c-.076.45-.175 1.05-.175 1.5 0 .375.075.75.424.95.5.324 1.6.35 2.15.35 5.696 0 9.296-4.3 9.296-9.7 0-4.498-2.4-6.297-6.774-6.297-.7 0-1.85.05-2.4.423-.524.4-.65 1.525-.75 2.15l-1.773 10.622zm-.526-10.12c.125-.778.324-1.677.324-2.302 0-.525-.25-.625-.676-.775-.325-.1-.7-.2-.7-.6 0-.55.325-.55 1.25-.55h6.198c6.874 0 8.248 4.947 8.248 7.497 0 2.65-1.474 10.797-11.572 10.797h-6.347c-.326 0-.625-.075-.625-.45 0-.4.325-.55.65-.625 1.15-.276 1.224-1.1 1.424-2.15l1.823-10.847v.002zm25.648 3.572c.75 0 1.076-.1 1.7-.524.2-.125.375-.275.625-.275s.375.224.375.424c0 .274-.1.8-.15 1.074-.2 1.1-.324 1.35-.774 1.35-.3 0-.45-.175-.65-.35-.325-.275-.674-.4-1.1-.4h-5.323l-.575 3.324c-.176 1.126-.425 2.524-.425 3.626 0 .4.124.7.5.85.474.225 1.598.2 2.124.2 4.896 0 5.596-.624 6.795-1.6.227-.2.5-.5.826-.5.175 0 .376.1.376.274 0 .35-.625 2.05-.776 2.45-.174.45-.322.575-.8.575h-12.67c-.325 0-.624-.074-.624-.475 0-.424.3-.5.65-.6.523-.15.823-.324 1.073-.875.324-.75.65-2.875.8-3.775l1.25-7.57c.124-.7.45-2.275.45-2.925 0-.575-.177-.775-.677-.925-.325-.127-.7-.2-.7-.627 0-.524.426-.524 1.25-.524h11.298c.526 0 .7.15.7.8 0 1.802-.174 2.25-.624 2.25-.25 0-.4-.226-.523-.425-.5-.675-1.05-.925-1.85-1.125-.825-.2-2.126-.227-3-.227-.774 0-2.8-.024-3.35.576-.45.472-.575 1.75-.7 2.396l-.6 3.55 5.1.002"/></svg>