<?xml version="1.0" encoding="UTF-8"?>
<svg width="129px" height="55px" viewBox="0 0 129 55" version="1.1" xmlns="http://www.w3.org/2000/svg" xmlns:xlink="http://www.w3.org/1999/xlink">
    <!-- Generator: Sketch 44.1 (41455) - http://www.bohemiancoding.com/sketch -->
    <title>Page 1</title>
    <desc>Created with Sketch.</desc>
    <defs>
        <polygon id="path-1" points="1.99423118e-20 0.0387972973 1.99423118e-20 54.5045045 128.833722 54.5045045 128.833722 0.0387972973"></polygon>
    </defs>
    <g id="Page-1" stroke="none" stroke-width="1" fill="none" fill-rule="evenodd">
        <g id="Artboard" transform="translate(-5.000000, -3.000000)">
            <g id="Page-1" transform="translate(5.000000, 3.000000)">
                <g id="Group-3" transform="translate(0.000000, 0.456847)">
                    <mask id="mask-2" fill="white">
                        <use xlink:href="#path-1"></use>
                    </mask>
                    <g id="Clip-2"></g>
                    <path d="M128.377367,18.1367703 C128.314093,18.0822658 128.245424,18.0337072 128.170378,17.9910946 L125.306382,16.3673559 C106.205062,5.53235586 85.7176061,0.0387972973 64.4169103,0.0387972973 C43.1167049,0.0387972973 22.6302297,5.53235586 3.52645779,16.3683468 L0.66393308,17.9910946 C0.0616060837,18.332491 -0.171378707,19.0901036 0.133708745,19.7159144 L16.7241878,53.7718153 C16.882127,54.0958694 17.1651422,54.3401486 17.5060357,54.4461847 C17.8479103,54.5522207 18.2182335,54.5125811 18.5292068,54.3351937 L21.7228152,52.5167252 C34.8425567,45.0426712 50.4039787,40.7566351 64.4169103,40.7566351 C78.4298418,40.7566351 93.9907734,45.0431667 107.111005,52.5177162 L110.305104,54.3351937 C110.538579,54.4679865 110.803937,54.5239775 111.066842,54.4987072 C111.15415,54.4902838 111.241458,54.4729414 111.326804,54.4461847 C111.669169,54.3391577 111.951694,54.0958694 112.109633,53.7718153 L128.700112,19.7159144 C128.966941,19.1674009 128.821754,18.5187973 128.377367,18.1367703" id="Fill-1" fill="#CE0029" mask="url(#mask-2)"></path>
                </g>
                <g id="Group-12" transform="translate(16.186312, 10.862252)" fill="#FFFFFF">
                    <path d="M79.3403954,4.81205405 C79.2472015,4.89975676 79.1898137,5.07813514 79.2192433,5.23768468 C79.2192433,5.23768468 81.5044563,18.3004324 81.5451673,18.5328198 C81.4632548,18.7513333 79.1697034,24.8672342 79.1697034,24.8672342 C79.1113346,25.0188559 79.1275209,25.1204324 79.1726464,25.2175495 C79.2192433,25.3141712 79.3207757,25.3944414 79.4306464,25.4340811 C81.1939734,26.0648468 83.0544183,26.7704324 84.4072015,27.3214234 C84.6284144,27.4111081 84.8805285,27.3050721 84.9707795,27.0806126 C84.9707795,27.0806126 87.3854829,21.102955 87.4727909,20.8884054 C87.6606502,20.7447117 98.1832243,12.7404775 98.1832243,12.7404775 C98.2921141,12.6577297 98.3583308,12.5046216 98.3539163,12.348045 C98.3480304,12.1964234 98.2464981,12.0631351 98.1116122,11.9967387 C96.4385361,11.1766937 94.6604943,10.3175045 92.9996806,9.59953153 C92.8422319,9.53115315 92.6612395,9.56286486 92.535673,9.67831532 C92.535673,9.67831532 87.162308,14.6699369 86.0788061,15.6743063 C85.9684449,14.1952523 85.4102624,6.86092793 85.4102624,6.86092793 C85.397019,6.68601802 85.2817529,6.53637838 85.1189087,6.48088288 C83.590038,5.95268468 81.6417947,5.31944144 79.7725209,4.74268468 C79.6278251,4.69957658 79.4365323,4.72336036 79.3403954,4.81205405" id="Fill-4"></path>
                    <path d="M54.8074894,0.759545045 L53.2629228,19.5571577 C53.2521319,19.6750856 53.2903905,19.790536 53.3664171,19.8797252 C53.4424437,19.9684189 53.5503525,20.0224279 53.6656186,20.0308514 C54.4543335,20.0818874 56.5516871,20.2359865 59.008573,20.5501306 C59.1258011,20.565491 59.2430293,20.5322928 59.3347517,20.458464 C59.4254932,20.3831486 59.4833715,20.2761216 59.4946529,20.1586892 C59.4946529,20.1586892 60.084227,13.969455 60.2936681,11.765491 C61.3197821,13.8906712 64.9062764,21.3226081 64.9062764,21.3226081 C64.9646452,21.4445 65.0769684,21.5322027 65.2098924,21.559455 C66.6480217,21.8517973 68.4162536,22.2462117 70.1903715,22.6703559 C70.3036757,22.6961216 70.4223753,22.6767973 70.5204741,22.6148604 C70.617592,22.5544099 70.6877327,22.4553108 70.7137289,22.3413468 L74.8893068,3.84648198 C74.9432612,3.61161712 74.7975844,3.37774324 74.5665616,3.32422973 C72.8233449,2.91098649 70.6720369,2.44125676 68.9533449,2.09738288 C68.7198696,2.04981532 68.4932612,2.20193243 68.4451928,2.4367973 C68.4451928,2.4367973 66.8893449,9.93909459 66.4670293,11.9755811 C65.586592,9.99211261 61.6690141,1.16585135 61.6690141,1.16585135 C61.6067213,1.02562613 61.4772308,0.929004505 61.3256681,0.910175676 C58.6946567,0.586121622 56.0219532,0.406752252 55.266592,0.358689189 C55.0311548,0.344815315 54.8271091,0.523193694 54.8074894,0.759545045" id="Fill-6"></path>
                    <path d="M47.3754217,0.152265766 C47.3754217,0.152265766 44.2083,0.21122973 44.2058475,0.21122973 C40.0969768,0.361364865 35.4466004,0.809292793 31.1101403,1.47226577 C30.875684,1.50794144 30.7138209,1.72794144 30.745703,1.9633018 L33.2477144,20.7376261 C33.2639008,20.8545631 33.325703,20.9605991 33.4198779,21.0309595 C33.5135624,21.1008243 33.632262,21.1295631 33.7475281,21.1097432 C38.8226726,20.2802838 43.8546536,19.8224459 48.5251403,19.8477162 C48.76303,19.8487072 48.9572658,19.656455 48.9602087,19.4146532 L48.9965053,15.9541126 C48.9974863,15.8366802 48.9533418,15.7256892 48.8729008,15.6419505 C48.7914787,15.5596982 48.681608,15.5151036 48.5663418,15.5111396 C46.0039996,15.4283919 41.3379274,15.7281667 39.0031745,15.9734369 C38.9296004,15.364473 38.664243,13.1852838 38.5872354,12.5530315 C40.55657,12.3389775 45.3629236,12.0813198 45.5767791,12.0847883 C45.7901441,12.0867703 46.0054711,11.8801486 46.0005662,11.6383468 L45.9368019,8.44983333 C45.9343494,8.3328964 45.8867715,8.2228964 45.8038779,8.14262613 C45.7209844,8.06285135 45.6076802,8.02271622 45.4948665,8.02073423 C44.2710833,8.00487838 40.4177601,8.25758108 38.1075319,8.48947297 L37.6881593,5.0219955 C39.993973,4.79753604 42.4263342,4.62857207 44.3603532,4.55722072 C44.3446574,4.55722072 47.4028894,4.50271622 47.4028894,4.50271622 C47.6402886,4.49825676 47.8291289,4.30303153 47.8286384,4.06370721 L47.8168665,0.588301802 C47.816376,0.471364865 47.7692886,0.358887387 47.6863951,0.277130631 C47.603011,0.194382883 47.4911783,0.149788288 47.3754217,0.152265766" id="Fill-8"></path>
                    <path d="M23.1548624,3.02168018 C21.123235,3.49884234 19.0273529,4.05181532 16.9255848,4.66771622 C16.7710791,4.71280631 16.6543414,4.84064414 16.6219688,4.9996982 C16.6219688,4.9996982 14.84687,13.7055541 14.5913224,14.9581667 C13.6225962,14.1346532 6.89546692,8.40722072 6.89546692,8.40722072 C6.77235285,8.30267117 6.60215133,8.27640991 6.45353156,8.33686036 C4.2826038,9.22677027 2.26863422,10.1102387 0.469010646,10.9649685 C0.255645627,11.0660495 0.161470722,11.3207342 0.256136122,11.5377613 L7.75824639,28.7071757 C7.80484335,28.8151937 7.89264183,28.8989324 8.00055057,28.9410495 C8.10894981,28.9816802 8.22961141,28.9772207 8.33555817,28.9276712 C9.53579772,28.3742027 11.1637483,27.6948784 13.3116228,26.8550135 C13.421003,26.8124009 13.514197,26.7286622 13.5544175,26.6166802 C13.5941475,26.5051937 13.598562,26.3788423 13.552946,26.2742928 C13.552946,26.2742928 11.2078928,20.7138423 10.3617901,18.7095631 C12.1383605,19.9681216 17.162984,23.5312297 17.162984,23.5312297 C17.2772692,23.612491 17.421965,23.6323108 17.5534175,23.5862297 C17.68487,23.5401486 17.7868928,23.4321306 17.8266228,23.2988423 C17.8266228,23.2988423 19.5914213,17.3489324 20.2089536,15.2678514 C20.7838129,17.3548784 22.4088205,23.2542477 22.4088205,23.2542477 C22.4720943,23.4851486 22.7094935,23.6219054 22.9390449,23.559473 C24.7489688,23.0610045 26.7281133,22.5526261 28.1044403,22.2270856 C28.219216,22.2013198 28.3168243,22.1279865 28.3776456,22.0274009 C28.4379764,21.9258243 28.4546532,21.8049234 28.4262046,21.6909595 L23.6723338,3.33780631 C23.612984,3.10839189 23.3834327,2.96767117 23.1548624,3.02168018" id="Fill-10"></path>
                </g>
            </g>
        </g>
    </g>
</svg>